<mxfile host="65bd71144e">
    <diagram id="zrDlgjqDOOZmykLZIuPm" name="Page-1">
        <mxGraphModel dx="523" dy="630" grid="1" gridSize="10" guides="1" tooltips="1" connect="1" arrows="1" fold="1" page="1" pageScale="1" pageWidth="1100" pageHeight="850" background="#333333" math="0" shadow="0">
            <root>
                <mxCell id="0"/>
                <mxCell id="1" parent="0"/>
                <mxCell id="1561" value="" style="rounded=0;whiteSpace=wrap;html=1;labelBackgroundColor=none;fontSize=18;fontColor=#F0F0F0;strokeWidth=1;fillColor=none;opacity=80;strokeColor=#FFFFFF;" vertex="1" parent="1">
                    <mxGeometry x="40" y="40.5" width="920" height="519.5" as="geometry"/>
                </mxCell>
                <mxCell id="821" value="Application Host" style="rounded=1;whiteSpace=wrap;html=1;arcSize=4;labelPosition=center;verticalLabelPosition=top;align=center;verticalAlign=bottom;fontColor=#CCCCCC;fontSize=24;fillColor=#4D4D4D;" vertex="1" parent="1">
                    <mxGeometry x="120" y="100.5" width="280" height="420" as="geometry"/>
                </mxCell>
                <mxCell id="1507" value="Policy App" style="rounded=1;whiteSpace=wrap;html=1;arcSize=6;labelPosition=center;verticalLabelPosition=top;align=center;verticalAlign=bottom;dashed=1;fontSize=18;fontColor=#ffffff;strokeWidth=2;fillColor=#1A1A1A;strokeColor=#4D4D4D;" vertex="1" parent="1">
                    <mxGeometry x="160" y="160" width="200" height="320.5" as="geometry"/>
                </mxCell>
                <mxCell id="1486" value="GitHub" style="rounded=1;whiteSpace=wrap;html=1;arcSize=4;labelPosition=center;verticalLabelPosition=top;align=center;verticalAlign=bottom;fontColor=#CCCCCC;fontSize=24;fillColor=#4D4D4D;" vertex="1" parent="1">
                    <mxGeometry x="640" y="100.5" width="240" height="419.5" as="geometry"/>
                </mxCell>
                <mxCell id="1552" value="" style="rounded=1;whiteSpace=wrap;html=1;arcSize=4;labelPosition=center;verticalLabelPosition=top;align=center;verticalAlign=bottom;dashed=1;strokeColor=#666666;strokeWidth=1;fillColor=#1A1A1A;" vertex="1" parent="1">
                    <mxGeometry x="700" y="170" width="120" height="320.5" as="geometry"/>
                </mxCell>
                <mxCell id="1540" value="" style="rounded=1;whiteSpace=wrap;html=1;arcSize=4;labelPosition=center;verticalLabelPosition=top;align=center;verticalAlign=bottom;dashed=1;opacity=10;" vertex="1" parent="1">
                    <mxGeometry x="200" y="350" width="120" height="110" as="geometry"/>
                </mxCell>
                <mxCell id="1495" style="html=1;startArrow=none;startFill=0;endArrow=block;endFill=1;strokeColor=#FFFFFF;fontColor=#FF6666;entryX=1.02;entryY=0.229;entryDx=0;entryDy=0;entryPerimeter=0;exitX=0.003;exitY=0.227;exitDx=0;exitDy=0;exitPerimeter=0;" edge="1" parent="1" source="1486" target="821">
                    <mxGeometry relative="1" as="geometry">
                        <mxPoint x="640" y="197" as="sourcePoint"/>
                        <mxPoint x="293.69135294117643" y="268.3523529411764" as="targetPoint"/>
                    </mxGeometry>
                </mxCell>
                <mxCell id="1498" value="Receive a &lt;br style=&quot;font-size: 14px;&quot;&gt;GitHub Event" style="edgeLabel;html=1;align=center;verticalAlign=middle;resizable=0;points=[];labelBackgroundColor=none;fontColor=#FF6666;fontSize=14;" vertex="1" connectable="0" parent="1495">
                    <mxGeometry x="-0.0089" y="1" relative="1" as="geometry">
                        <mxPoint x="-14" y="-27" as="offset"/>
                    </mxGeometry>
                </mxCell>
                <mxCell id="2" value="Organization" style="verticalLabelPosition=bottom;html=1;verticalAlign=top;align=center;strokeColor=none;fillColor=#00BEF2;shape=mxgraph.azure.github_code;pointerEvents=1;fontColor=#CCCCCC;fontSize=14;" vertex="1" parent="1">
                    <mxGeometry x="735" y="120" width="50" height="50" as="geometry"/>
                </mxCell>
                <mxCell id="1502" style="html=1;labelBackgroundColor=none;fontColor=#FF6666;startArrow=none;startFill=0;endArrow=block;endFill=1;strokeColor=#FFFFFF;entryX=0.25;entryY=0;entryDx=0;entryDy=0;exitX=1;exitY=0.75;exitDx=0;exitDy=0;" edge="1" parent="1" source="821" target="1553">
                    <mxGeometry relative="1" as="geometry">
                        <mxPoint x="400" y="404" as="sourcePoint"/>
                        <mxPoint x="610" y="620" as="targetPoint"/>
                    </mxGeometry>
                </mxCell>
                <mxCell id="1503" value="&lt;font color=&quot;#99ff99&quot; style=&quot;font-size: 14px;&quot;&gt;Apply Policy Task(s)&lt;/font&gt;" style="edgeLabel;html=1;align=center;verticalAlign=middle;resizable=0;points=[];fontColor=#FF6666;labelBackgroundColor=none;fontSize=14;" vertex="1" connectable="0" parent="1502">
                    <mxGeometry x="0.1083" y="-1" relative="1" as="geometry">
                        <mxPoint x="-5" y="-27" as="offset"/>
                    </mxGeometry>
                </mxCell>
                <mxCell id="1531" value="" style="group;labelPosition=center;verticalLabelPosition=bottom;align=center;verticalAlign=top;" vertex="1" connectable="0" parent="1">
                    <mxGeometry x="200" y="290" width="120" height="46" as="geometry"/>
                </mxCell>
                <mxCell id="1512" value="&lt;font face=&quot;monospace&quot;&gt;&lt;span style=&quot;font-size: 0px&quot;&gt;dfgd&lt;/span&gt;&lt;/font&gt;" style="rounded=1;whiteSpace=wrap;html=1;strokeColor=#666666;strokeWidth=2;fillColor=#222222;fontFamily=varela round;fontSize=18;fontColor=#333333;shadow=0;arcSize=7;" vertex="1" parent="1531">
                    <mxGeometry width="120" height="46" as="geometry"/>
                </mxCell>
                <mxCell id="1513" value="" style="ellipse;whiteSpace=wrap;html=1;aspect=fixed;strokeColor=#82b366;fillColor=none;fontFamily=varela round;fontSize=18;strokeWidth=2;" vertex="1" parent="1531">
                    <mxGeometry x="83.64000000000001" y="9.75" width="24.461538461538463" height="24.461538461538463" as="geometry"/>
                </mxCell>
                <mxCell id="1516" value="" style="group" vertex="1" connectable="0" parent="1531">
                    <mxGeometry x="12.461538461538462" y="8" width="24" height="30" as="geometry"/>
                </mxCell>
                <mxCell id="1517" value="" style="rounded=1;whiteSpace=wrap;html=1;strokeColor=#808080;strokeWidth=2;fillColor=none;fontFamily=varela round;fontSize=18;fontColor=#E6E6E6;arcSize=7;" vertex="1" parent="1516">
                    <mxGeometry width="24" height="30" as="geometry"/>
                </mxCell>
                <mxCell id="1518" value="" style="endArrow=none;html=1;strokeColor=#CCCCCC;strokeWidth=2;fontFamily=varela round;fontSize=18;fontColor=#E6E6E6;" edge="1" parent="1516">
                    <mxGeometry width="50" height="50" relative="1" as="geometry">
                        <mxPoint x="12.96" y="20.400000000000002" as="sourcePoint"/>
                        <mxPoint x="20.64" y="20.400000000000002" as="targetPoint"/>
                    </mxGeometry>
                </mxCell>
                <mxCell id="1519" value="" style="endArrow=none;html=1;strokeColor=#CCCCCC;strokeWidth=2;fontFamily=varela round;fontSize=18;fontColor=#E6E6E6;" edge="1" parent="1516">
                    <mxGeometry width="50" height="50" relative="1" as="geometry">
                        <mxPoint x="12.96" y="24.000000000000004" as="sourcePoint"/>
                        <mxPoint x="18.240000000000002" y="24.000000000000004" as="targetPoint"/>
                    </mxGeometry>
                </mxCell>
                <mxCell id="1520" value="" style="endArrow=none;html=1;strokeColor=#CCCCCC;strokeWidth=2;fontFamily=varela round;fontSize=18;fontColor=#E6E6E6;" edge="1" parent="1516">
                    <mxGeometry width="50" height="50" relative="1" as="geometry">
                        <mxPoint x="12.96" y="6.000000000000001" as="sourcePoint"/>
                        <mxPoint x="20.64" y="6.000000000000001" as="targetPoint"/>
                    </mxGeometry>
                </mxCell>
                <mxCell id="1521" value="" style="endArrow=none;html=1;strokeColor=#CCCCCC;strokeWidth=2;fontFamily=varela round;fontSize=18;fontColor=#E6E6E6;" edge="1" parent="1516">
                    <mxGeometry width="50" height="50" relative="1" as="geometry">
                        <mxPoint x="12.96" y="9.600000000000001" as="sourcePoint"/>
                        <mxPoint x="18.240000000000002" y="9.600000000000001" as="targetPoint"/>
                    </mxGeometry>
                </mxCell>
                <mxCell id="1522" value="" style="endArrow=none;html=1;strokeColor=#808080;strokeWidth=2;fontFamily=varela round;fontSize=18;fontColor=#E6E6E6;entryX=1;entryY=0.5;entryDx=0;entryDy=0;exitX=0;exitY=0.5;exitDx=0;exitDy=0;" edge="1" parent="1516">
                    <mxGeometry width="50" height="50" relative="1" as="geometry">
                        <mxPoint y="14.826000000000024" as="sourcePoint"/>
                        <mxPoint x="24" y="14.826000000000024" as="targetPoint"/>
                        <Array as="points">
                            <mxPoint x="9.600000000000001" y="14.826000000000024"/>
                        </Array>
                    </mxGeometry>
                </mxCell>
                <mxCell id="1523" value="" style="shape=image;verticalLabelPosition=bottom;labelBackgroundColor=#ffffff;verticalAlign=top;aspect=fixed;imageAspect=0;image=data:image/png,iVBORw0KGgoAAAANSUhEUgAAAggAAAHtCAYAAAB8nYbPAAAgAElEQVR4Xu3deXxcddU/8HPuTNJ0Y98VEBRRRFxQAR/ZHjcQfXDBqixtbrqkcycNNLmTlk0GKKXtTNKSZm6aLnPTsqhFcEMURUFFH33ABXFlpyhI2emeZO75vaYCP5C2meXu30/+zfd7lvf3tj2d5V4m/EAAAhCAAAQgQAt7V7zZaUgmX0vRIPRILTQb6aV7x8q4rzhacssr+59qeuyFJXr2hVriBbGHg0iKnBCAAAQgAIEwCAwMDIx7qdTwpXItQrJAI20/r+raSBu+O54mfPuV+P+3z4Q1N06aVPIqX71xMSDUK4j9EIAABCAQKYHcwJrjtJJjbB8KmMaRyFmBNCB0PTOXRJzvmemWbwZSwy6SYkAI24mgHghAAAIQ8EQgb9k/IaIjhGgcE+3tSZLagr5ERC+WaETmGNMPrS2E+7swILhviogQgAAEIBASgYXWqiOHeGj6WGnqDElJlZSxVJNSb0d62oOVLPZqDQYEr2QRFwIQgAAEAhPI9a0+gdg5mpmWB1ZEnYlFaAYxP5Exmr9fZ6iatmNAqIkNmyAAAQhAIIwC2YGBcRNLjSuE6FgiOjKMNVZVk9BTzPSTEXKumGNM/XtVe+tcjAGhTkBshwAEIACBcAh0W/ZtQnQMER0Qjorcq0KIntWYN3Wmmn37jAIGBPfOD5EgAAEIQMBngWw2q03Y79AZRNTvc+pA0jHRL6VE07Th5x/r6Oh49R4LXhSDAcELVcSEAAQgAAHPBfLL7M9TiQ4mpiWeJwtbAuZFZqp5jpdlYUDwUhexIQABCEDAE4F8YdU5xFovEe3lSYIoBGVeSyS/N1P6Ai/KxYDghSpiQgACEICAZwLdA6tPdUrOLUw0zrMkEQksRENCTkeXMbXgdskYENwWRTwIQAACEPBEILd0zWGcKD3sSfCIBxXmLz2x5d7vLe5Y7NrnEjAgRPyiQPkQgAAEVBDotuzjRegGYjpMhX5r6XGbsy3XqDX9zK37JmBAqOUUsAcCEIAABHwTyFmrj2F2vkFC7/AtaXQTPcksMzpTLbfU2wIGhHoFsR8CEIAABDwTWLt2bWLdM5ueJ6KJniWJWWAh2kycOC6TmvynelrDgFCPHvZCAAIQgIBnAosGBt+qlSTQ5xF41pwPgYVL786kptU8JGBA8OGQkAICEIAABKoT2P6ZA6LriOit1e3E6lcEePsrCfKlWt9uwICAawkCEIAABEIlkOtfeTRL4puxeJZCwLJC8kSJhmfMNVqrfuATBoSADw/pIQABCEDg9QJ5y95IROPh4o7ANtn2osPOcZcaRlUPe8KA4I4/okAAAhCAgAsCect2iAj/Nrlg+doQG+TFvsvTF8yqJiwOoRotrIUABCAAAc8Ecn2rJmmJxNdFBP82eaEslDbTulVpaBxCpVJYBwEIQAACngnk+uwvs8ZLiWQfz5Ig8JAQfTVj6AsrocCAUIkS1kAAAhCAgGcCuWWrT2Bx7iShRs+SIPC/BZjXmqnmL1XCgQGhEiWsgQAEIAABzwRyBXs6My33LAECv06AiRbuNZayuq5v3RUNBgRcOBCAAAQgEJhAd6FoCnMusAIUTfyCPD9tXrpjFQYERS8AtA0BCEAgzAJ5y76KiC7Etxb8P6URGn5yrjHjIAwI/tsjIwQgAAEIjCLQbdm3CdEnABWMwD+HHpu/+ILsxTvLjrcYgjkXZIUABCCgrMDChasmJiZqi4hoprIIIWhciJ5t1OiE82fqD+yoHAwIITgklAABCEBAJYG8ZfdjOAjHiTPRDZ2Gfg4GhHCcB6qAAAQgoKxAe+GiUw/hI36qLED4Gv8XOzS1s02/9T9LwysI4TssVAQBCEAgtgJ4zkL4jlaEZmTS+goMCOE7G1QEAQhAIPYCC1dc9+bE8PCNRHR87JuNYIOalI7oSE978LWl4xWECB4kSoYABCAQNYGcZWeYqPzBRPyEUOB5efHEq9IX3IUBIYSHg5IgAAEIxFVgobXqyARp3yeit8a1x6j3VZLSn+ekpx2NASHqJ4n6IQABCERIIG/ZEqFylS3VNPTXvauAtxiUvRTQOAQgAAHvBfKW/RIRTfQ+EzK4IPC4aeiHvBIHA4ILoggBAQhAAAJvFMhZ9tlEZDPhKY1RuD6EZP1jpXUn983K/q1cLwaEKJwaaoQABCAQMYFc36pJrGkWEe0dsdIVLldGRmRk6dz0jA4MCApfBmgdAhCAgFcCeWvwWCK5x6v4iOudABOv6TSap2BA8M4YkSEAAQgoK3BVoX/LGG5qUhYgwo0Lye1OSabMmTX1CbzFEOGDROkQgAAEwiaQK9iXMtMVYasL9VQuICQtGaOl/NkR/EAAAhCAAATqF8gX7KuJ2SSSZP3RECEoAQwIQckjLwQgAIEYCrStyh508NCbv5aQxEkxbE+xlqS1M6WvwCsIih072oUABCDgtkChsHbCZt64iIlTbsdGvGAEhpkOw4AQjD2yQgACEIiNQL5gryKmltg0hEYIAwIuAghAAAIQqFsAt1KumzB0ATAghO5IUBAEIACB6Aj09t46Zij5r38Q8T7RqRqVViKAAaESJayBAAQgAIE3COT7Vh5KmnYdEX8EPPETYKap+AxC/M4VHUEAAhDwVCA7kN+nYWTC4Bgec4aniRA8UAEMCIHyIzkEIACB6AkstFYdqRH9mUlLRK96VFypAAaESqWwDgIQgAAEaOGqVRMT27TyI5zxE3MBDAgxP2C0BwEIQMBNgbxlP0FEB7oZE7HCKYABIZzngqogAAEIhE5gUWHVZI23P8J5fOiKQ0GuC2BAcJ0UASEAAQjETyC/zP48lah8Q6Q94tcdOtqRAAYEXBcQgAAEILBLgbw1eCyR3AMmtQQwIKh13ugWAhCAQNUCuFNi1WSx2IABIRbHiCYgAAEIeCOQt4pXEvEl3kRH1DALYEAI8+mgNghAAAIBCnRbg/OFxCSihgDLQOqABDAgBASPtBCAAATCLGDbdtOzW3k1iUwKc52ozTsBDAje2SIyBCAAgUgK5HJrxmvjnZyQpCLZAIp2RQADgiuMCAIBCEAgPgL5fvs6EjonPh2hk1oEMCDUooY9EIAABGIqMKt37scOTR7545i2h7YqFBCWj2JAqBALyyAAAQjEXWDxYnsPp4nvFZFD4t4r+tu1wDDTYRgQcJVAAAIQgADlVqw5jIdKg8R0EjgggAEB1wAEIAABCFBPz8q9Sk2Jm5noZHBAoCyAAQHXAQQgAAEIUHeheLAwrwMFBF4RwICAawECEICA4gKLBwYOLJUay49wxg8EtgsISUvGaLHxGQRcEBCAAAQUFcj1rTpBS2jfEqH9FSVA2zsQwICAywICEICA4gLd/fZyEZquOAPa/w8BDAi4JCAAAQgoLNBtDf6PsJRviDRRYQa0/kaBm8fK+Cnp9KSNeIsBlwcEIAABxQQW9q/8UEISv1GsbbRbgQATr+k0mqeUl2JAqAAMSyAAAQjESSBnrXKYNPz9H6dDdaEXYRoacrYuvDid+ioGBBdAEQICEIBAlATy/cWFJNwVpZpRqz8CQvKvdQ3rPrh0evYfGBD8MUcWCEAAAqEQ6LaK80UoQ8zJUBSEIsIm8Lhp6K/eZhsvMYXteFAPBCAAAQ8EFlkrv0jEazXSPIiOkHEQMA39dTMBBoQ4nCp6gAAEILALAdu2m57dItcQ8QxAQWBnAhgQcG1AAAIQUEwgb9k3EdHnFWsb7VYjINJhplsWv3YLXkGoBhBrIQABCERMoGVh18SjJr7zpYiVjXJ9FtCkdERHetqDGBB8hkc6CEAAAkEILFmyYv+RxuQviOiIIPIjZzQERGhGJq2v+M9q8QpCNM4PVUIAAhCoSiC3Ys1hPFwqEtEpVW3EYtUEHkgw67NTzb/EgKDa0aNfCEBAOYHcmjXjeWPpR0T0YeWaR8NVCTDRDZ2Gfs6ONuEVhKoosRgCEIBA+AWutq7fs4GGngt/pagwUAGhpzaWNrw9296+w8+oYEAI9HSQHAIQgIC7Aj2FlW9zOPGAu1ERLaYCd5qGfurOesOAENNTR1sQgICaAnnL/j0RvVfN7tF1pQJMfF2n0XzertZjQKhUE+sgAAEIhFwgZxV1IlrMxLuHvFSUF7RAid5pztL/hgEh6INAfghAAAIeC+StVacTazeTUJPHqRA+6gLimL/Zd+KSGydNKmFAiPphon4IQAACuxDoLhQ/LMxv+Joa0CDwBgHmtWaq+UuVyOAthkqUsAYCEIBAiAXyli0hLg+lhUdgC5GkTKNldSUlYUCoRAlrIAABCIRUIN8/mCeRzpCWh7JCJKAJnd6R1n9YaUkYECqVwjoIQAACIRPIW4NXEsmFRJQIWWkoJ2QCkkgcn2md/JtqysKAUI0W1kIAAhAIicCFvYtOnJCYeNMYbto3JCWhjPAKPO4k+NSu1uaHqikRA0I1WlgLAQhAIAQC2ewdyYn7PbpMiKaGoByUEG6BnT5rYbSyMSCMJoTfQwACEAiZQM6yf8BEp4WsLJQTOgHeWH5Yl2k0/7aW0jAg1KKGPRCAAAQCEsj323eQ4AmNAfFHKu2Lpefvv3JWx5G1Fo0BoVY57IMABCDgs0B3oXiwsHYrkRztc2qki5gAM93XmdKPqadsDAj16GEvBCAAAZ8EcktXHMaJZLH8krFPKZEmqgJMP0loyfNmt573ZD0tYECoRw97IQABCPggkM1mkxP2O/TXRHSsD+mQIuoCIh1mumVxvW1gQKhXEPshAAEIeCwwMDDQsKHUOORxGoSPhQDf8pt9xn12tOcsVNIqBoRKlLAGAhCAQEACuf41R7OU7gsoPdJGSMAR54Wu9NQ93SoZA4JbkogDAQhAwGWBRVbxZI24fN/8Q10OjXAxFNjkbJp7WVvbQrdaw4DgliTiQAACEHBZoLvfvkKELnU5LMLFUUAobaZ1y83WMCC4qYlYEIAABFwS6C6sOlVY+wkR4e9pl0xjG0Z4jpluXuR2f7jw3BZFPAhAAAJ1CszvtU5sTI79eZ1hsF0BAWG6NZPSz/CiVQwIXqgiJgQgAIE6BBYUVowkOYknNNZhqMJWERlhTWs2U83Xe9EvBgQvVBETAhCAQI0C3Za9WIguqHE7tikkoBGd1GHov/CqZQwIXskiLgQgAIEqBbr77ctEKFvlNixXUICJTug09PLNszz7wYDgGS0CQwACEKhcIN83eBJp8rPKd2ClwgIPJSTxmdnpyX/10gADgpe6iA0BCECgQoFcobiamSdXuBzLlBXgBx2m5q5U8y+9JsCA4LUw4kMAAhAYRSBn2Xcy0cmAgsCuBXhES9J7O2Y0/9kPKQwIfigjBwQgAIGdCFy9dPmPGxINHwMQBCoQ2GIa+rgK1rmyBAOCK4wIAgEIQKB6gdzSNYdpydI3Rej91e/GDsUE7jYN/UN+9owBwU9t5IIABCDwssCSgdWHDJecNXhrAZfEaAJCcvuYhka9ffq5/xhtrZu/x4DgpiZiQQACEKhQIG8N3kckR1e4HMsUFhChr2bS+pV+E2BA8Fsc+SAAAeUFsrbdNGELbVEeAgCjCjDRDzsN/fRRF3qwAAOCB6gICQEIQGBnAj3L1nzAcUq/IqIGKEFg1wLyA9No+VRQShgQgpJHXghAQDmBXL99CjtUJKbDlGseDVclMCIjztz09ECfx4EBoaojw2IIQAACtQvkLHsOEy2oPQJ2qiIwIqWZc9PTBoLsFwNCkPrIDQEIKCPQYxVPdojvVKZhNFqrQImIvmoa+vxaA7i1DwOCW5KIAwEIQGAnAnlr9elEzq0AgsCoAkILzLR+4ajrfFiAAcEHZKSAAATUFsgX7I3ENF5tBXRfiYBp6KH5dzk0hVQChzUQgAAEoiaQ77eXkNAsItKiVjvq9VdA0xIf7Jg5+R5/s+48GwaEsJwE6oAABGIlsHbt2sRjT2+eyyzzYtUYmvFEQEg+njFabvckeI1BMSDUCIdtEIAABHYlcLm19PTxNAGfO8BlMrqA0P1cciZ1tk+9d/TF/q3AgOCfNTJBAAIKCVxdGPhVAzeeoFDLaLUmAX4kofE5s2dO+d+atnu4CQOCh7gIDQEIqCmQt+xfEtGH1eweXVcj4CT4bV2tzQ9Vs8evtRgQ/JJGHghAIPYC2Ww2OX6/Q29mos/Evlk06IKAPGcaLXu7EMiTEBgQPGFFUAhAQEWBSwo9p02kiSsSnHyziv2j52oE5K6JieH/bm1tHa5ml59rMSD4qY1cEIBAbAV6+le/yXFKXyfmj8S2STTmjoDQj0eS2rS5rVPWuRPQmygYELxxRVQIQEAxgbxll99HPlyxttFuDQJMtLDT0OfWsNXXLRgQfOVGMghAII4CpnX1xw6gA34cx97Qk7sCQvTDjKGf7m5Ub6JhQPDGFVEhAAFFBLoLxQ+Lxj8koYmKtIw2axVg/qaZav5irdv93ocBwW9x5IMABGIj8PITGot4ayE2R+pZI0Oy9fYnS8OfXtrevs2zJC4HxoDgMijCQQAC6ggsslalNdL61OkYndYqMOIMf2lu24y1te4PYh8GhCDUkRMCEIi8QI+15mSHSndGvhE04LXAMBHPM43mK7xO5HZ8DAhuiyIeBCAQe4G5ixZ9Yp8J+94W+0bRYN0Cw7Jt8ML0TL3uQAEEwIAQADpSQgAC0Ra4qrf/gTHJprdFuwtU74fAw/LgIVb6qsf9yOV2DgwIbosiHgQgEGuBfL+9hITaiCgR60bRXN0CjtD7utL6H+oOFFAADAgBwSMtBCAQLYHsHXckJ/ztUZOEro5W5ajWfwHZJuR8IWNM+77/ud3LiAHBPUtEggAEYiyQ7e09fkJyYugeyRtj8si2NkxD33tOnpyRS2f/FdkmiAgDQpRPD7VDAAK+CSyyVt6hUeIU3xIiUVQFHtdYO6sjNeX/otrAK3VjQIj6CaJ+CEDAc4G8Zf+aiI7zPBESRF4gkUgeNLv1vCcj3wheQYjDEaIHCEDAKwEzlxu///i91zDx573KgbjxERhytH0uapvybFw6wisIcTlJ9AEBCLgukF16zdlN2rhVSU42uR4cAeMm8NONsvnMbDq9MS6NYUCIy0miDwhAwFWBXH//fkxjv00iJ7gaGMFiKMC3JxM89YLWKevi1BwGhDidJnqBAARcE8hbdvl95ANcC4hAsRQoSWnTs8NPz110wYWxeyYHBoRYXrJoCgIQqEdgcb/9lpLQI/XEwF5VBPgHptH8qTh2iwEhjqeKniAAgZoFXn4I001EtHfNQbBRDQGma82UPjmuzWJAiOvJoi8IQKBqgXzfypOIE4PEdFjVm7FBKYFtsm0zjx16y0Ut7U/HtXEMCHE9WfQFAQhUJbCwd8WbE8nkn4ho96o2YrGSAg5J6+b161Zms1knrgAYEOJ6sugLAhCoSqC7b/CjosntVW3CYhUFhkTo6kxaz8a9eQwIcT9h9AcBCIwqkLOK5zLxtaMuxALlBbbK5jsuSaf/WwUIDAgqnDJ6hAAEdiqQt+yZJJQnpvFggsBoAk85Txyba7v4d6Oti8PvMSDE4RTRAwQgULNAt2WvFKKpNQfARmUEtBId0zFLv0+VhjEgqHLS6BMCEHidwMDAQMOGkcZOYroaNBDYlYCQlETovK50y9dUksKAoNJpo1cIQOBVgUsK3a178F7LQAKB0QRGZOh3zzvPNy+cNVeZVw/KJhgQRrsy8HsIQCCWAvMLA883cuMesWwOTbknIPSUI/KprrYWJT538Fo4DAjuXUaIBAEIREQgVyjezcwfiEi5KDNAgZHE0B5zW1tfDLCEwFJjQAiMHokhAAG/BbK9vbuNTYxfkWBtkt+5kS+CAk7pLWbbtMciWLkrJWNAcIURQSAAgSgIXGlZn22khhsSlBwbhXpRY3ACQvSjEWr88oXGOc8HV0WwmTEgBOuP7BCAgE8Cixfbe5TGUPlOicf6lBJpIiogRD/VRJo70y2PR7QFV8rGgOAKI4JAAAJhF8hbgxuIZELY60R9gQs8vnEsvT2r61sDryTgAjAgBHwASA8BCHgvcGHfoq/ure17ufeZkCH6AnKLabR8Jvp91N8BBoT6DREBAhAIsUDOKn5MY75OhPYPcZkoLQQCwrQik9JnhKCUUJSAASEUx4AiIAABLwQW9Q/+lybO9UR8qBfxETNGAkzXbNSGLsq2tm6OUVd1tYIBoS4+bIYABMIq0LNy5V7OUOIJIhoT1hpRV3gERJxpmfTUVeGpKPhKMCAEfwaoAAIQ8EBgUWHVJzTWbvMgNELGSYBpSBy6OpPWs3Fqy41eMCC4oYgYEIBAqAS6++0WEcL/BkN1KuEsRogvyhjNeGDXDo4HA0I4r1lUBQEI1CiQt+yZRLSIiCbWGALbFBIwDR3/Du7kvAGj0B8EtAoBFQTy/fYSEjpfhV7RY30CmsNHd7Q1/7m+KPHdjQEhvmeLziCglMDatWsT657dlCEhvFys1MnX0qw8Iw5Ny7S1fKeW3arswYCgykmjTwjEXODia7o79mzYqzvmbaI9dwS+bhr6V9wJFd8oGBDie7boDAJKCSzoW745qTXgIUxKnXpNzT4vXDopk5r2p5p2K7QJA4JCh41WIRBXgbxl34OHMMX1dN3ta+P6xxLZbNZxN2o8o2FAiOe5oisIKCEwv2/13o1csoh5khINo8n6BDR5lzmz5S/1BVFnNwYEdc4anUIgdgLd/cVPi/D3YtcYGnJdQIRuHS5J80XtLU+7HjymATEgxPRg0RYE4i5g23bTs1vp/0jo3XHvFf3VJ8BEP2PWzulITflnfZHU2o0BQa3zRrcQiIsA5y0b7yPH5TQ97EOIns0Y+j4epohtaAwIsT1aNAaBeAo029mmo7ccehc+lBjP83W7q63OlpsuaTPOcjuuCvEwIKhwyugRAjESmL9sxVkNTsJi4n1j1BZa8UagYBp6mzeh4x8VA0L8zxgdQiA2Arm+4nGc0L5JIm+OTVNoxBsBpmtkY+LiTGbyJm8SxD9qZAeEbDarHXjggYl6jujJt79dsqeeOlJPDOyFAAT8Eejt7R0zlJy41Z9syBJxAUdYOz+TmtIX8T4CLT9SA0L5+e6vaL3Y8MJX9hzZq7kePWZ6quQ4k1+JwZoz8k9t/V+XtF78ZD1xsRcCEHBfIGcNnsEkt7gfGRHjJSAjzDyvM6VfHq++/O8m1ANC+4pLjz10+K1feIVFSC70ksghGRqmoduaqGn7LTg7jeaLvMyH2BCAQGUCLz/Cub+y1ViltABzh5lqXqy0gUvNh3JA6O4vtopwc4lH9k1I8q0u9VpLmF+XNyVIu3S2MeX2WgJgDwQgUJ/A9r8PiHMkNLG+SNitgoBp6KH8dy2K9qGAHBgYaNi0ac+k07Rpc6gRhf6mbRv//nKNHR2TtoS6VhQHgRgIlD9rNGHfQ64m5q4YtIMWvBUYdoQ+1JXW/+BtGnWiBzogzOq95K0HNxz+TiaZwqJF6nuqwvylTKp5rTqXCjqFgP8CVxX6Z4/hph7/MyNjxATWk1DKTOs3R6zuUJcb2ICQtwZnbKHN546lsSeGWmhXxTEvKv9aK9GajrbmP0e2DxQOgRAK5ArF3DANtzZyI95aCOH5hKUkIaIh2fati9MzPx+WmuJSh+8DQveya98jzsgKIjqSiHaLB6Q8WKLSc3OM6cfFox90AYHgBfKWXf67Hz8QGE1gy5aRDe++tL39odEW4vfVCfgyIGSzaxv33ffpxi087jkiaqiuxEit/sNY2Xzi008/vTWbzeL+CpE6OhQbFoHs2rWNE5/Z9FMh+q+w1IQ6QiogtMVM6+NCWl3ky/J8QLjasvZMUtMSJn71fgORVxulARG68tB9x18+adKkUtx7RX8QcFOgr2/13lsTspREvuJmXMSKn0BJSk9LsvTRua2t98Wvu3B05OmA0G3ZC4T5EEX/sC8Vooczhr4kHEeNKiAQfoHcUvsUTtAd4a8UFQYtMETbCv+Qf8210tmNQdcS1/yeDQi5QnEpMxvlz/DFFW+0voRos8Z8YWequXe0tfg9BCBAlLfs+4noCFhAYBSBX20bGvn8xRdMfwpS3gm4PiAsXmzv4TTRLBG6wruyoxWZmc/aMPzSj7Pt7S9Fq3JUCwF/BLKFwoQJPK7858P1v5P86QBZfBTYZhp6k4/5lE3l6h/GXMH+DDN9V1nNXTS+ydn4wvjkxDPNmc0/hw8EIPB6gbxl/4SI/hsuEBhVgHmtmWr+0qjrsKBuAdcGhO6CPV007iORxrqrim+AJx1HZnS1teCBM/E9Y3RWpUC+v/hJcWglM+MRzlXaKbecebGZau5Qru+AGnZlQMj32+eRUPmxmjG5r4GXp8HrmeTMTkPf/pwH/EBAZYHu/tXvE8f5ATHtr7IDeq9IYOnExNDc1tbWcN+Sv6JWorGo7gGhxyqe7BDfGY12w1OlcGL/TGry+vBUhEog4L8Abobkv3lEMw4T8xw8pdHf06trQOi2Bv9HSL7jb8nxyaZR4pQOY/LP4tMROoFA5QL5gv15Yrqp8h1YqaiAEEnWNFrwwXefL4CaB4RcwZ7OTEuJaIzPNccmnZD8c4i2Tr/YMH4Qm6bQCAQqEMgVim3MfI3KX4OugAlLyl9rYTY6U839wPBfoKYBIV8YPIdYygeGh6jUcWbbbzQv8jQTn2Gm9bvrCIWtEIiMwPb/XBAtJqbxkSkahQYi4JAjXcZUZe+lEwj6a5JWPSAssoona/jMgevnlhwaOeAC3PTDdVcEDJdAZuDKt+7m7Ll2rIx/f7gqQzVhE2DijUTycXygO7iTqXpAwIeKPDssMQ0dk7JnvAgcBoG8VbyEiK8MQy2oIdQC619+awGfUQnwmKoaEPKFYp6YOwOsN96pRTrMdMvieDeJ7lQV6C4MLhWWNlX7R9+VC4jQ/2TS+vcq34GVXghUPCDk++0lJFT+w53wohDE3H6P2c0ilDHTugUPCMRJYEFh+fIkN0zDrZTjdKre9WIaesX/NnlXBZqHvUQAACAASURBVCJXdAhXFvpbx3CDpVECL4H7cc2Ic6KZnnqXH6mQAwJeCxQKayds4U3lr0PjVspeY0c+Pj9jpqbsR8zbP8ONn2AFRh0Qenuv220oMXwNMTUHW6o62UXoykxa/6o6HaPTuArM71u9d2NClir6yPe4HqtnfQnLRzOplp96lgCBqxIYdUDIWfY3megLVUXFYhcEeLlpNLe6EAghIBCYQHe//W0ROjOwApA4QgJySyLRMGN263lPRqjoWJc66oCAby0Edv7DpqHjwVeB8SOxGwL4+8MNxfjHYOZ7eMvIJzs6pj0X/26j0+EuB4S8ZT9BRAdGp514VcpEP+o09E/Gqyt0o4LA/N7ivo0JfgQ3Q1LhtOvvER9KrN/Qiwg7HRB6LPtEh+i7RLSHF4kRsxIB/pNWkrM7Zun3VbIaayAQBoH8suJR5NB1RPy+MNSDGkIvcK1p6JNDX6WCBe5wQDD7s0fvQwcNJqXhWAVNQtWyCP1OSjypq735oVAVhmIgsBOBfKE4m5h7AASB0QSEOL9p/aNzstmsM9pa/N5/gR0OCAutFbpGiRVMjHse+H8mb8jIRCfgdqMhOAiUMKrA/N5lRyWTDb/QSNtr1MVYoLYAk7V3E3Xqur5VbYjwdv+GAWFgYKDhpVKDycTzw1u2epU9PvTEAddccPFT6nWOjqMicNmSJYdMbNz9sajUizqDExCRe/48bt2Jg3oWw0FwxzBq5jcMCD2FlW9zOPHAqDuxwFeBjfTib7LGBcf7mhTJIFCFwLy+/iebtKYDqtiCpeoKXGwaOv4TGvLzf8OAgO8th/bESiwytzPdkg9thShMWYF8wT6fmBYREb6aq+xVUFnjQtySMZrtylZjVZACbxgQ8L3lII9j17mF6dZMSj8jvBWiMhUFctZg+cb5BSIZq2L/6LlygS2lzZf/cf87r7xx0o2lyndhZVACrxsQ8pa9jogODqoY5B1dQIi6MoaeG30lVkDAe4Fsb+9RjdqY3zdqjXjlwHvuSGcQoueF5HNdRsvPIt2IQsVjQIjYYTPRTdtGJHVRe8vTESsd5cZQIG8VLydiPDckhmfrZktC9LQwp7pSzTe5GRexvBXAgOCtr1fRbzMN/TSvgiMuBCoRyFvFASKeUclarFFcgOU0M9Vym+IKkWv/1QEhb9m9RGQQEe59EIFjxK1JI3BIMS4xtXju4YePOfIeJtozxm2iNZcE8PeVS5A+h3l1QOi2BlcLCW536fMB1J5ONt6fWLf/8tbs5tpjYCcEqhe42rL2TNLYG5gIr2JVz6fajsdlU+KdmczkTao1Hod+tw8I+QH7HVSiQSI6Lg5NKdLD8CbZmLksPesaRfpFmyEQWGzbe5S2UD8RfTkE5aCEMAsw3SsyMjljTP9jmMtEbTsX2D4g5KyizsRFQEVO4AkhnpExmr8fucpRcCQFvrp0ySd3S+z+w0gWj6L9FWBebKaaO/xNimxuCmBAcFMziFgiHWa6ZXEQqZFTPYGcVXyJiSeq1zk6rk5A/iQTksdnJuOthercwrWas9ls44T93tJFJFeGqzRUU7GApn3RnDnlmxWvx0IIVCnQXSgeTMy/FaJ9q9yK5eoJ/MU09Hep13b8Ouar++23NAg9Er/W1OoInxJW67z97Lanb/BdjiariQiPf/cTPqK5hqlxrwuNc56PaPko+zUCGBBicjkIyXUZo+W8mLSDNkIkkCvY05lpeYhKQikhFWCihRMSQ5e2trYOh7RElFWFAAaEKrBCvvR509D3CnmNKC9iAldbxcMbie8TonERKx3l+i7AyycmtrVhOPAd3rOEnLNWnsGUuMWzDAjsp8BPh0bky7gNs5/k8c318lsLf4pvh+jMPQH+k2k0v9u9eIgUBgHG0xvDcAyu1tBuGvpSVyMimJICeHibksdeW9PCc8x0c/lx3/iJkQAGhBgd5vZWmO5LatqnL2idUn4yJ34gUJNAt2VfIETziQiPcK5JUJ1NTHJep9FynTodq9MpBoQYnvVW2fxfl6TTv4pha2jJB4GcVTz35RunNfiQDikiLjA0Ivvhbc2IH+JOyseAEM9zJUfofV1p/Q8xbQ9teSSArz17BBvDsCL0NLF2dsaYcnsM20NL5Rek8RmEeF4H5eevZwx9v3h2h668EshZxflMfKFX8RE3NgLPkdB0M63fHJuO0MgbBDAgxPeiGCKmy8yUviC+LaIzNwXyVrFIxLqbMRErngIvaM8tnDezc248u0NXrwhgQIjxtTBCw79eJw+fZ6UXPBjjNtGaCwJXWpbVRE2tTKy5EA4hYi6wcf1jDdlsdiTmbSrfHgaEmF8CjpQWPbntpezijo4tMW8V7dUokB+4YR92hmwR+XSNIbBNGQF5sMlJHN/WNuVZZVpWuFEMCDE//JKUHGI+ao4x9e8xbxXt1SCQ7b1utwnJ4ZVE9MUatmOLWgJ/YM1p7pw59V612la3WwwICpw9E/2y09A/okCraLFKgav6lv10jDbm1Cq3YbmCAsy0ojOlz1CwdWVbxoCgyNHfv+2BY5fPnv87RdpFmxUK4FtMFUJh2UOH7DP+yEmTJpVAoY4ABgRFzlqIntUc7cOdbVPuV6RltLkLgZ7Cyrc5WvIOEnkzoCCwKwERvieTbv4glNQTwICg0Jkz0Q2dhn6OQi2j1R0I9CwffJcM06CwfABAEBhNgEUO6Uy3PD7aOvw+fgIYEOJ3prvq6F+s0dTOmfqtarWNbl8rkLPss5noeqhAYDQBJlq4YT1ls1l962hr8fv4CXCXNb97PzqwI36toaMdCQzL0MhIads7Lm1vfwhC6gksHhg4sFRq/Of2x3rhBwK7EmAaNFM6bpyl8FXCuPe6eqcvROdkDP0G9TpXu+O2pdmD3pI4tDwc4AcCowk8ahr6YaMtwu/jLYABId7nu9PuTEPH/yAVO/vL+/oGx2vjpyjWNtqtQUCIZmcMfUkNW7ElRgIYEGJ0mNW0wkQ3dhr6pGr2YG10BfL9g7NZZJ4QjYtuF6jcDwEW+XJnuuUbfuRCjnALYEAI9/l4Wh0Tr+k0mvE/Sk+Vgw/eXSh+SZi/HnwlqCDsAkLSkjFa7LDXifr8EeALi737TtiW/P4YGYvvufpjHp4sQj9OJJNTZree92R4ikIlbgrM7+3dV0s0/SvJDXgIk5uwMYzFxE8KO7qZarkthu2hpRoEtr8PnbOKOhMXa9iPLREXwP8YIn6Ao5SfLxR7iHl2vLtEdy4IvMjEkzuN5u+6EAshYiKAASEmB1lHGw8kEsmT8SpCHYIh3Zrvt9eQ0HkhLQ9lhUhA05wPdsycek+ISkIpIRB49ZPs3dbgaiGZHIKaUEIAAvhWQwDoHqbMW3YvEc3yMAVCx0VAZMRMtzTEpR304Z4ABgT3LCMdySE6qcvQfxHpJlD8doFc/5r9NCotF6EzQQKBUQT+Uio5H58za+oTkILAfwr8/wGhf/WnRUrXEfHuYFJSADdGicGx9/SsHes0bbqOiD4fg3bQgqcCcq8j3NyV1v/gaRoEj6zA626Wk7fsdUR0cGS7QeH1CGwjknmm0TKvniDYG6xArjB4N+MhTMEeQgSyO+KMvDjyQs9V53fOiUC5KDEggf8cEMqPAj4ioFqQNgQCjjhTutJT14SgFJRQpUD7ikuPPWT4cHzQrEo3JZcLPWKm9cOV7B1NVyzwhtvt5i1bKt6NhfETEOneexxfout4eluUDndxYc07S1y6hYjwl36UDi6AWkdoeMtcYwbuqBmAfdRSYkCI2on5UC+e/+4Dsosp8suKR7Foq0XkAy6GRaiYCmykFy/NGhfgrcSYnq+bbe1oQPgsEX3LzSSIFTmBP5qG/p7IVa1owd3Wqv8R0r6jaPtouxoBoQUbx9HlWbxCWI2asmvfMCAstoqHl4j/TERNyqqgcSLiB02jGZ9HCfm1sHjg2gNLpRF8RS3k5xR0ecws4sgNZlo/N+hakD86Ajt85G+uYE9npuXRaQOVeiDwJGvO6Z0zp97rQWyEdEEg3zd4EmnyMxdCIUTsBeSFx7QH/mvpzKv/EvtW0aBrAjseEPrXHE1UWs1C73ctEwJFTmCESvdulQ3N2fRsfE86hKfX3T94Nz53EMKDCWFJzDKzM9UyEMLSUFKIBXY4IJTr7bbs64Xo7BDXjtI8FhASEaFzutItX/M4FcJXKZCz7AuI6ComwqfRq7RTbrmmfdGcOeWbyvWNhusW2OmAUI6ct+zye5sH1p0FASItkEgkD8LDnMJzhN2W/UUhWhueilBJiAXaTUNfGuL6UFqIBXY9IPTbq0ioJcT1ozQfBNihqZ1tOh4H7oP1aClevpXy5tHW4fcQIKInWKPpnTP1W6EBgVoEdjkglAN29xfnifDFtQTHnvgIiMglmXTLVfHpKJqd5PvtAgkZ0aweVfslwESbSaMvYjjwSzyeeUYdEHp7e8cMJXe7hEguiScBuqpIgOlvZkp/Z0VrscgTgXy/fR0JneNJcASNl4Am7zJntuAbC/E6Vd+7GXVAKFe0qL+Y0oQt36tDwlAJMHF/p9GM/70GcCrd1uB8IbkwgNRIGTUBoRfMtL5n1MpGveETqGxAKAx+QmNZiSc9hu8A/ayIiX7U0NAwtX36uf/wM6/quZasWLF/aaShX0Q+p7oF+h9NQO5NMH92dkp/dLSV+D0ERhOoaEDY/irC9iHBuYmIJ4wWFL+Pr4A4zpcybVPxCXqfjnjt2rWJdc9sKt/6/DM+pUSayArwH3mkNLmzHTc3i+wRhqzwigeEct05y17PRPuGrAeU46/AP7WtpWM6OqY9529aNbPlC/ZfiekdanaPrqsT4O+aRvOZ1e3BagjsXKCqAaEcBo+DxuVUFjANveprB3LVCfSsXLmXM5R4trpdWK2mAJ6doua5e9t11X/J563irUR8urdlIXr4BbRPmcaUH4S/zmhW2DNgv9sp0Y1EdGQ0O0DVPgrcZhr6aT7mQypFBKoeEHp6Vu7lNCUKRPRlRYzQ5g4EHHKeeXH4xWlXnd+Bxwy7fIUssVYdOczaDXgWisuwMQw3LMNbh0ulD3+1PfX7GLaHlgIWqHpAePlthllE1Btw7UgfpACTOCS9XamW8jMB8OOiQK6/+N8s/BMXQyJUTAUccRY8XtqUXdrevi2mLaKtAAVqGhDK9S6yVn49wclJIlJzjAD7Rmq3BIS+YKb1m90Kp3qchb0r3pxIJh9X3QH9jyogRHSdaeiTR12JBRCoUaDmf9zNZfM+s3/poG8w89gac2NbHASYrtm49/iu7KRJQ3FoJ8ge8n32x0mjHwVZA3JHRmCLaeh4kmdkjiuahdY8IJTb7baK5wrxtdFsHVW7JSDE12WM5vPciqdqnLxl30FEp6jaP/quRkCaTaNldTU7sBYC1QrUNSCUk+Frj9WSx3M9vvZY37nm+ortrGkLiASvyNVHGf/deFsv/mcckg7rHxCWFY8Sh+9iItz7OySHGlAZfzAN/X0B5Y502m7L/qIQ4e6UkT5F74sXoq0s1GmmdTwXx3tuZCCiugeE7a8iFIqzibkHouoKMNE6ETrLTOt3q6tQfecLCismJzmJl4qrp1NuR/lZKJ2G/knlGkfDgQm4MyAsKx5FDl1HxPgfZGBHGYrEf2EunduZmobvZFd4HDlr1QiTlqhwOZapK1Aih0432/Qfq0uAzv0WcGVA2P4qgjX4HSL5H78bQL5wCTA5Z3YaU78brqrCWU23ZV8vRGeHszpUFSYBFjmkM92Cr7+G6VAUqMW1AeHfQ4J9LxEdo4AbWtyFwAtDL75j3gUX/B1IOxfIFYoXM/M8GEGgAoF/mob+5grWYQkEXBVwdUB4eUgo38ADPwoLbHY2PvLVtlmHK0ywy9Zz/Wv2I2dkGTN/DkYQ2LUA/9bR5CtdM/UHIAUBvwVcHxByBftSZrrC70aQL1wCwnRlJqV/NVxVhaOavGX/kIjwYbNwHEeYq/iLVqIvd8zS7wtzkagtvgKuDwgLl676QCKh4ZPs8b1mKuqMme/pTDV/sKLFCi3KF+yHiekwhVpGq7UL/NQ09I/Wvh07IVCfgOsDQrmcXGFwKrNcQ0Tj6ysPuyMukDMNvSviPbhWfk//6jc54jxMRI2uBUWguAr83TT0d8S1OfQVDQFPBoTtQ0K//X0W+lQ0GFClFwJM/KPhoW3T517Qus6L+FGKuahgv1fj8leB6V1Rqhu1BiLwPdPQ8Y2wQOiR9LUCng0I+WWDJ5Ej5e/s4n9LKl9zQj/f+PT4j2ez6j7MadHA4Fu1ktxERO9R+VJA76MLDNPw1q0y/PHL0+m7Rl+NFRDwVsCzAaFcdt6yNxMR7i3v7RmGPrq2dfy4jo5JW0JfqEcF9vSv/pAjzm88Co+wMRIQkvxuieGLWltbh2PUFlqJqICnA8K/h4TBh4kEH8qK6AXiVtlSGjk8M2v6I27Fi0qc/ID9DirRX6NSL+oMToCJ13QazVOCqwCZIfB6Ac8HhG7LPl6I/hfwygv82jT0E1RSyFmDZxDJzYy32VQ69pp6dcihLmOq538f11QcNikr4PkF2bNy5V6locRSxi1llb3IXm78OY1oVoeh36ACRPs1lxxxUMOhX0tS8lgV+kWP9QkMU2nShca0G+uLgt0QcFfA8wGhXK7Ze9UZeyf2Xd7ADQe5Wz6iRUmAia/uNJovilLNtdaa6y+2s2x/wikexFQroir7hL5gpvWbVWkXfUZHwJcBocyRt4oDRDzdrUdMR4cYlb5egFvN1JQVxBzbW3Ln+gYnsSbfwMlDYFcCQuKUyJk315h2GaQgEEYB3waEfw8J9hARNYQRAjX5JzAxMdQY109pz+qdNebQ5Pu3+qeJTFEVcKi07qXS81PmzcrcGdUeUHe8BXwdEHLLimeyw9+ONym6G02Ahb7TmdY/O9q6KP4+Vyh+g5knRbF21OyzgMYnmzObf+5zVqSDQMUCvg4I5ap6CvZpDtMPKq4QC2Mp8JcNf92tOGfRhjg1l++3ryOhs/E2WpxO1ZtehBP7Z1KT13sTHVEh4I6A7wPC4oL93hLTrUR0oDstIEoUBYToD8lE8lOzW897Mor1v7bmnp6esU7TnpcTUSbqvaB+7wUcodO70nr5iZ74gUCoBXwfEMoaeCR0qK8J34pjpis7Y/BI6Jy1+hgm517f4JAoygJ3U4kmm7P0v0W5CdSuhkAgA8I1y+wjhh36JhEdowYzutyRgBA9QKSdlTGm/DHKQjnLvpOJTo5yD6jdF4H7E5L47Oz0ZNxZ0xduJKlXIJABoVx0T8/asU7Tpk14v7beI4z2fmH5aCbV8tOodtFt2Y8J0SFRrR91+yeg7TN+XMckdZ9J4p80MrklENiAUG6g2xr8jZB8yK1mECeaAiUuHTcnNe3/olb9JUtzV+ye2HsuE+Oru1E7PP/r/a1p6B/wPy0yQqB2gUAHhHLZecuO7Q1zaj8W9Xaahh74tViNenf/6veJ46wmpndXsw9r1RNgops2rB9/tsqPPFfv1OPRceB/Kef7B7tIZGE8ONFFzQIii8x0y5ya9/u4ccHA6kOSJaf8Vd2jfEyLVNEUuFl4ayqTSuErjdE8P6WrDnxAyGaz2oT9Dr2SiJS4R7/SV9uum7/TNPRTo+CT77e3kFBTFGpFjQELMHebqWYz4CqQHgI1CQQ+IPz7bYbV04ikm0h2q6kLbIqJgKzcOLKxM9ve/lJYG8pbg8cSyT1hrQ91hUpgtWnozaGqCMVAoAqBUAwI5XoXWCvuSFLylCpqx9I4Cjh8stkWztvP/vtW4XQdEU+IIz16ck9gG239wcVG6lPuRUQkCPgvEJoBYd7SpR9oSky4238CZAyZwN2moYfumy05a+UZTImVRHRAyLxQTggF1tP6dywy5vw9hKWhJAhULBCaAaFccda2myZsoS0VV4+FcRXYahr62DA1lysUW5l5WZhqQi3hFGDmszpTzTeFszpUBYHKBcI1IGz/wOJb7iWSoytvAStjKOAIl96TSU37Uxh6yxeKXyHmG8JQC2oIr4CQkLBzTVdq2gXhrRKVQaBygVANCOWyryoUTk3wmB8mKdFYeRtYGTeBEpXu38IvnZdNdQR6A6XZPdkPvanp0N/EzRf9eCDA8tQWHmq+dOZMPIjJA16E9F8gdANCdvHiPcaNmXCNRsnJ/nMgY1gEhMQpSeniuenpC4Ks6eq+Fb9q0JInBFkDckdDQGPtuI7UlEAH2mhIocqoCIRuQHgFLm/ZvySiD0cFEnW6L8DMQo7zkc50y6/cjz56xJxVvJaJzx19JVYoL5AY2tdsbX1GeQcAxEogzANCHxGlY6WNZqoWYOK2TqO5UPXGOjZs/7DsVrmchLvqCIOtiggMOcOTL0rPuI6YcNt4Rc5clTZDOyCUD2CRtTKnUQJ3IVPlatxJn34/p+Fqq3h4guQhjTTF5dH+aAJM/H+aaM14hPNoUvh9FAVCPSDk1uTG88Z9NkYRFjW7KcC3m0bzx92MuKtYecv+NREd51c+5ImmABM9WhqmT3Sdrz8QzQ5QNQR2LRDqAWH7qwgF+zSNqfxgHPwoLMBEP+w09NO9JBAR7u4ffISIDvUyD2LHQ+Cp0pM35GZddE48ukEXEHijQOgHhHzB/iAx3Yi/tJW/fO8mp/RFs23aY15J5C17kIimeBUfceMjwES/6DT0k+LTETqBQAQHhHLJ86y+rzZK06UaJ5I4RHUFhGhuxtA9eTR4d//q94k45QHhGHWF0XlFAiJrZWKyJTN58qaK1mMRBCIqEPpXEMquF/fPe9PuctBtGvG7IuqMsl0QKL/nq0niU25/IGxRwT5AY/o5ER3hQpkIEWMBZvqOaGOmma1n4yuNMT5ntPZvgUgMCK8cVt6y8TUiXLnk9rcasn1L1k/Qdt8XtBAYRUCIqd9M6fj6NS4VJQQiNiAM/phIPqbEyaDJnQoIycczRsvtbhD1WPaJDm1/9QA/ENi1gFDRTOtTwQQBVQQiNSAMDAw0bCg1rsAHyVS5PHfSp9AmM61PqFehu3/wCyJSfoTzHvXGwv54CwjJ1Rmj5aJ4d4nuIPB6gUgNCOXSu/uLnxbh7+EglRZwhGhJxtA7a1XoKdinlYjWMBPeWqgVUaF9Gmtv7khN+adCLaNVCETrMwivnFfOWrWISSvfYTFyAw6uORcFxDHN9NTuaiOW73fQs2xQF6FV1e7FetUEeERYzsuk9K+r1jn6hUAk/4Gd1Xvp+w5OHHqTxonDcITqCgjRqlJiqHNua+uL1SgsKqyarLG2upo9WKuegBBtZqGLzLR+jXrdo2MIRPh/4PhLHpdvWcBx5NiutpbfVaqRLxS7iNmTeylUWgPWRUbgYdPQ3xqZalEoBFwWiOQrCK8Y4GuPLl8N0Qz3F9PQK74/Rt6y/05Eb49mq6jaTwGtRMd0zNLv8zMnckEgTAKRHhAWDAzsnig1vMD4KEKYrqkgannRNPRdfhMhe8cdyfF/fWQ5E+tBFIic0REQoq2ayNs70y2PR6dqVAoB9wUiPSBkBwbGNYzIbWN4zEfcp0HEqAgIyWYWPsVM63fvqObe3t4x2xIT5jEzHh0elUMNsE5HSO9K6+XbbuMHAkoLRHpAKJ/cooHBt2qOFEkID05R+lKmb5uG/rkdESxZsmL/kcbkv9TmQfcVCtxNmjSbM1v+UuF6LINAbAUiPyCUTybfby8hofNje0porBKBF4XIyBj6Df+5OG8N3kckR1cSBGuUFnhyJKEdP7d1yjqlFdA8BF4WiMWAsH1IsOx78SQ+XNdC2nsyxpQ/liXKb0FNKDWWv+FwJGQgMJqA28/4GC0ffg+BsAvEZkBYUFjek+SG2WEHR30eC4h0mOmWxf8eGgf7iAQP1vGYPCbhbzMN/bSY9II2IOCKQGwGhLJGt2XPEaIFrsggSGQFyv8TXFSw36sRrSGmd0e2ERTuiwAT3dAw0pBqbz/3JV8SIgkEIiIQqwFhft/qvRs1B89pj8jF512Z/Cdm2k1EDvEuByLHQ4BvGaaGyRca5zwfj37QBQTcE4jVgFBmyS0rnskO3UjEDe4xIRIEIBBDAUdIBjJGixHD3tASBOoWiN2A0DmQ3WefkYOWN3DDDr/yVrcYAkAAArEQYKaBzpQ+MxbNoAkIeCAQuwGhbNRj2ScK8TeE5EAPzBASAhCIuIAIXZ5J69mIt4HyIeCpQCwHhLJY3rL/TERHeaqH4BCAQCQF2NGO7Gybcn8ki0fREPBJILYDwstDwlNEtJ9PlkgDAQiEXKD8nAVmmmGm9GtDXirKg0DgArEeEHCL3cCvLxQAgTAJbCWiLtPQl4apKNQCgbAKxHpA6OlZO1bGbrpGhKaH9QBQFwQg4I/AttK2dRfPmnmoP9mQBQLRF4j1gFA+nly//WUW+lr0jwodQAAC9Qhs3PbCYdnZsx+tJwb2QkAlgdgPCNuHBMtewCSdRJxU6XDRKwQgQERCLzgJ+lDXTP0BeEAAApULKDEglDnylv13Inp75TRYCQEIRF2gJKWNwzQ885J06vqo94L6IeC3gDIDQnf/4BdE5Jt+AyMfBCAQnECJSnc8I/84O5fO/iu4KpAZAtEUUGZAePlVBInmMaFqCECgegF+Xlh7RyY1eX31e7EDAhBQakBYVLAP0JjvI5J9cPQQgEC8BcpP9Yx3h+gOAt4KKPcHKGcVz2Vi3CTF2+sK0SEQsIB81zRazgy4CKSHQKQFlBsQFlvFw0vCNjGdFOmTQ/EQgMCOBZiuH5bGWXiEMy4QCNQnoNyAUOa6olAojOWxM5lYq48PuyEAgTAJCNGPnDHOWXOmTt0QprpQCwSiKKDkgFA+qLxl30FEp0Tx0FAzBCCwIwHZ+Gjp4WP6Zs17BD4QgED9AsoOCC8PCfhWQ/3XECJAICwCS01Dbw9LMagDAlEXUHtAKNjnE9OSqB8i6oeA6gIifEkm3XyV6g7oHwJuCig9IKxduzbx2DObZjHRYjdREQsCEPBXbGd/SQAAFEFJREFUwHHk2K62lt/5mxXZIBBvAaUHhPLR5vpXf47FsYlo93gfNbqDQPwEmHijQ9SeMZrLf4bxAwEIuCig/IBQtsz32zYJNbvoilAQgIDHAiIywgk+35ypWx6nQngIKCmAAaH8KkJf8TjW6BYixh0WlfxjgKYjKSC0yUzrEyJZO4qGQAQEMCC8fEj5gRv2odK2pyNwZigRAhAoP8WZE/vjOQu4FCDgnQAGhNfY5q3iA0T8Nu+4ERkCEHBBYL1Woo91zNLvcyEWQkAAAjsRwIDwGpjtt2EmfghXCwQgEE4BIac0TMNdFxkze8JZIaqCQHwEMCC85ixza9aMp40jOSZOxeeI0QkE4iPgiPO7l5KbJs1rbccgH59jRSchFcCA8B8HM+eaBWfuntxjVSOP2TukZ4ayIKCkgBANbRrZsG+2vf0lJQHQNAR8FsCAsAPwbmtwvpCYRNTg83kgHQQgsAOBEpW2zjGmjQUOBCDgnwAGhJ1Y5y37H0T0Jv+OApkgAIGdCWyQF3svT19wPoQgAAH/BDAg7GxA6C9+koR/6N9RIBMEIPCfAiM0UkpK8uvamFJ7x7Rpz0EIAhDwTwADwi6sLy50/3FP3uvd/h0HMkEAAq8VEKI7x4xsOK29vX0bZCAAAX8FMCDswnvJwOpDSiXnF0J0iL/HgmwQgAARlUxDT0ICAhAIRgADwijuuUKxlZmXBXM8yAoBdQWEOJ8xmjPqCqBzCAQrgAFhFP9838pDRUtcy0QnBntUyA4BhQSELjTT+gKFOkarEAidAAaECo4ka9tNE7bQY0S0XwXLsQQCEKhDgJmvOnjvcZdNmjSpVEcYbIUABOoUwIBQIWDessvfaPhkhcuxDAIQqE1gA5HWYRpTVta2HbsgAAG3BDAgVCGZt2ypYjmWQgACVQowy8zOVMtAlduwHAIQ8EAAA0IVqPjAYhVYWAqBKgVelOfyV6Y78aHEKt2wHAJeCWBAqEJWRLjbGmwnpiVVbMNSCECgAoGN6x9ryGazIxUsxRIIQMAHAQwIVSIv6h/8giZSfgkUD3Oq0g7LIbBDAeZ/kNBnTaP5txCCAATCI4ABoYazyPcP3kgiZ9WwFVsgAIHXCzwupLVkjCm3AwYCEAiXAAaEGs4jZ60+hsn5BRHtVsN2bIEABF4V4LtMoxn3GMEVAYEQCmBAqPFQstlscsJ+hw7XuB3bIKC8wL9G/vn9Dx3w9jNxvwPlLwUAhFQAA0IdB5O3ir8j4vfVEQJbIaCkgEMlZ/dEqam1tRVDtpJXAJqOggAGhDpO6eW3Gu6tIwS2QkBJga20dfXI+qdastmsoyQAmoZABAQwINRxSNlCYcIEHle+X3y6jjDYCgGlBJjoBm4szeqYNu05pRpHsxCImAAGBBcOLFcofpuZz3QhFEJAIO4CvzYN/YS4N4n+IBAHAQwILpxi3hq8kojmEgmeXe+CJ0LEWIDJMlM6XnGL8RGjtfgIYEBw6SyvsPr+PI7GH+VSOISBQAwFeJ5pNF8aw8bQEgRiKYABwaVjnbN0wbv3Tez/R5fCIQwE4iUgMmfj0+vy+FBivI4V3cRbAAOCi+e7qK/4fk1j3C7WRVOEioWAEDlnmMbUH8SiGzQBAUUEMCC4eNCLltlHsEPfZ6IjXAyLUBCIssBLRJIxjZblUW4CtUNARQEMCC6feq6veBxptJqJj3Q5NMJBIHIC7NDUzja9GLnCUTAEIEAYEDy4CPLW4PeI5NMehEZICERG4EV6/q9XGh344G5kTgyFQuD1AhgQPLoi8lZxAxFP8Cg8wkIg5AIyUtoge82ZM3VDyAtFeRCAwE4EMCB4dGl09Vy9aL+mAzIehUdYCIRYQB5j4i93GvqvQ1wkSoMABEYRwIDg4SWSt+w+3IbZQ2CEDqPAk+zweZ1tzT8JY3GoCQIQqFwAA0LlVlWv7Olf/SFHnN9UvREbIBBRgSFn6LcXtbV+IKLlo2wIQOA1AhgQPL4ccpY9h4nKD3TCDwTiLSC0xUzr4+LdJLqDgDoCGBA8Put8oXiWMFtMtK/HqRAeAkEK/HasbD4lnU5vDLII5IYABNwTwIDgnuVOI3X3D35BhL6Ohzn5gI0UwQgIfcFM6zcHkxxZIQABLwQwIHihuoOYecveSkRjfEqHNBDwU+AbibE0c7auv+BnUuSCAAS8FcCA4K3v66LnLVt8TIdUEPBeQOQ3ZrrleO8TIQMEIOC3AAYEH8W7LfvnQnSijymRCgKeCpiGjr9DPBVGcAgEJ4A/3D7aLx649sBSaWQFEZ3hY1qkgoAnAsx8SWeq+SpPgiMoBCAQuAAGBJ+PIFcoXszM83xOi3QQcFVAiLo2rX9scTabHXE1MIJBAAKhEcCAEMBR5K3BHxPJxwJIjZQQqFuAifs7jWaj7kAIAAEIhFoAA0IAx9Pdb18mQpcR4WmaAfAjZR0CJRn53wQ3DJpG8/I6wmArBCAQAQEMCAEdUrc1mBaS8rMa8AOByAg8Wnro8L5Z8x6JTMEoFAIQqFkAA0LNdPVvxNce6zdEBP8EhkpbzrxolvFd/zIiEwQgEKQABoQA9XN9q05gTfsxEY0PsAykhkAFAvxScmj47RdcMP2pChZjCQQgEAMBDAgBH2KuYF/GTNmAy0B6COxK4GESZ4qZnnoXmCAAAXUEMCAEfNYLl636QMLRrieitwdcCtJD4A0CQvT8Nt46/ZJU6ibwQAACaglgQAjBeect+w4iOiUEpaAECLxegOmh+7X/fefy1uXDoIEABNQSwIAQkvPOW/YTRHRgSMpBGRAoC6w3DX1/UEAAAmoKYEAIybmLCHf3DzohKQdlKC4wQiMPJnjkvzKp1HrFKdA+BJQVwIAQoqPPWXY3E3WEqCSUoqjANtrSNbx+PW6lrOj5o20IlAUwIIToOlhYWHUqE/1UYy1EVaEU1QSY6KYNIxtasu3tL6nWO/qFAAT+vwAGhJBdDd2Foin/fpjTmJCVhnIUEHDEua8rPfUYBVpFixCAwCgCGBBCeInkrcFfEMlHQlgaSoq5wOPOI5+4pu2K8s278AMBCCgugAEhhBdAzho8g0luCWFpKCnGAuVHOGcMPRfjFtEaBCBQhQAGhCqw/FyK5zT4qY1c5eFg0/q3LM5mTx2BBgQgAIGyAAaEkF4H2TvuSE74y6P/ICZ8Dz2kZxSHsoTEYeJ+09Db4tAPeoAABNwTwIDgnqXrkRYVVn1CY+021wMjIAReEWB56uEt93/E6ljwIFAgAAEIvFYAA0KIr4eFS1cdlEjwABF/OsRlorQICzDzWZ2pZjxnIcJniNIh4JUABgSvZF2K220NzheSC10KhzAQeFXAITqpy9B/ARIIQAACOxLAgBCB6yLfP3gjiZwVgVJRYnQE1pNT+pDZNu2x6JSMSiEAAT8FMCD4qV1HLnyroQ48bP1PgYc0Ir0Drx7gyoAABHYhgAEhIpdHd7/dLEJ2RMpFmWEVEHrB0fjTXanmX4a1RNQFAQiEQwADQjjOYdQqenrWjnWaNm0edSEWQGAXAk87T359YdtFXwESBCAAgdEEMCCMJhSi3+eXDZ5EjnyLiPYKUVkoJToCj5iGfnh0ykWlEIBAkAIYEILUryF33rIXEVGmhq3YorCAEP1ChCZ1pfV/KcyA1iEAgSoEMCBUgRWGpd3LVr1HHO1mIsL/BMNwIBGowSGntE2GUpemUysiUC5KhAAEQiKAASEkB1FNGZZ1/Z6baei5avZgrZoCQvTsJt561ItbtmxY3NGxRU0FdA0BCNQigAGhFrUQ7Om2Bv8iJO8MQSkoIdQCcpdptJwY6hJRHAQgEEoBDAihPJbRi1q4atXExDbtpdFXYoXKAqah48+4yhcAeodAHQL4y6MOvCC3ZrN3JCfs/+iVJDQ3yDqQO7wCTDS709CXhLdCVAYBCIRZAANCmE9nlNoGBgYaXiqNuYZJUhFuA6V7ICBEcw/dZ3x+0qRJJQ/CIyQEIKCAAAaEiB9yzrIzTHw5kYyNeCso3x0BGZGRa+emp09xJxyiQAACqgpgQIjByc8rFG5p4nFnxKAVtFCngIhsepLWfaInnf1VnaGwHQIQUFwAA0IMLoDZS69495sSB/8xBq2ghToFWKMzOmfqt9YZBtshAAEIEAaEmFwE+b6Vh5KWeDQm7aCNWgTEOdFMT72rlq3YAwEIQOA/BTAgxOSayPb27jYhOfH3uMNiTA602jaY/8EJ/mjnjCn3V7sV6yEAAQjsSAADQoyui3zB/jwx3RSjltBKZQIPkcMtZlvzzytbjlUQgAAERhfAgDC6UWRWLCrYB2gsK4j405EpGoXWK7CFhE420/rd9QbCfghAAAKvFcCAELPrIbt2beOEZzaV32o4KmatoZ0dCGzlrc9dkkrtDRwIQAACbgtgQHBbNCTx8pYtISkFZXgn8GfT0I/2LjwiQwACKgtgQIjp6S8orCglOanFtD20RXRnaWTkvDnt0/8BDAhAAAJeCGBA8EI1BDGvtga+2ECNa0NQCkpwWcCR0l+38qbzvmqc/1uXQyMcBCAAgVcFMCDE+GLIFwbPIZbrYtyioq3JD0yjpXznTLyNpOgVgLYh4IcABgQ/lAPK0d238qPC2vXEvH9AJSCt+wJ3moZ+qvthERECEIDA6wUwIMT8iui2Bi3B0x5jccpDsvX3F6VT749FM2gCAhAIvQAGhNAfUX0FLiyseGeCk7cR0cH1RcLuoAW2yOYvXJpO3xx0HcgPAQioIYABQYFzXrt2bWLdM5tGFGg1ti2KyCUZQ59PzPjcQWxPGY1BIFwCGBDCdR6eVZO37F8T0XGeJUBgzwRKUvrhnPS00z1LgMAQgAAEdiCAAUGRy2LhwlUTtQm8mpk/p0jLcWmztEk2nHdZuv1rcWkIfUAAAtEQwIAQjXNypcqcZZ/NRNe7EgxBfBHQKHFKhzH5Z74kQxIIQAACrxHAgKDY5dDdby8XoemKtR3NdsU50UxPvSuaxaNqCEAg6gIYEKJ+glXWn+8f7CSRK4lobJVbsdwnAUccx6GRi+emWxf4lBJpIAABCLxBAAOCghdFrlBsY+alCrYeiZZLUrr/pW3PnnNVx5x7IlEwioQABGIpgAEhlsc6elN42uPoRkGsYGZxhN+bMab8MYj8yAkBCEDgFQEMCIpeC92F4sHCvE7R9kPbtmno+DMZ2tNBYRBQSwB/Gal13q9229tb3HcoyXcQ0bsUJQhj2781Df0DYSwMNUEAAuoJYEBQ78xf7bhnqf3ukkaDzIT7+wd/HfyUnFKL2TbtseBLQQUQgAAEiDAgKH4V5K3BIpHoijME2r5DpcdekGf1+ek55Vd08AMBCEAgFAIYEEJxDMEWkbfsR4joLcFWoXB2pp+YKf1jCgugdQhAIIQCGBBCeCh+l5S37EEimuJ3XuTbLnCbaeinwQICEIBA2AQwIITtRAKqp9uyFwjRnIDSK5nWIYfess/E5KRJk0pKAqBpCEAg1AIYEEJ9PP4Vl1u64jBOJB/2LyMyOeS0dRlTC5CAAAQgEEYBDAhhPJWAauq2Vp8rVLKJOBlQCWqkFXFY4ys6U/rlajSMLiEAgSgKYECI4ql5WPOCwvLlSW6YRviGi2fKQ7TtlouMmZ/xLAECQwACEHBBAAOCC4hxCnFxX/6kPbS9vsXEe8WprzD18qTzz5O72y75eZhqQi0QgAAE/lMAAwKuiTcIlG+g5CQIzwLw4NpgohM6Df3XHoRGSAhAAAKuCmBAcJUzPsEWW8XDR4j/zERN8ekq0E62CcmnM0bL7YFWgeQQgAAEKhTAgFAhlIrLFhVWfULTEqtI5M0q9u9ez/w8C13QmW5e415MRIIABCDgrQAGBG99Ix/9ikKhfyyPncHEWuSbCagBYfpKJqV/PaD0SAsBCECgJgEMCDWxqbOpa+nCg/bW9vp9gpP7qdO1e50+V3r6W/NndX3evYiIBAEIQMAfAQwI/jhHPsvFS3M/2zOxz7FEND7yzfjQgBBt3VB6Iac9++IV2Wx2xIeUSAEBCEDAVQEMCK5yxjtYvr/4SSJtJT6TMMo5C71ALBeYRsvqeF8R6A4CEIizAAaEOJ+uB73l+9d8kmTkm0Q8wYPwsQjJIl/uTLd8IxbNoAkIQEBZAQwIyh597Y0vsa49coRG/lZ7hPjuFEeOz7S1/Ca+HaIzCEBAFQEMCKqctMt95gfsd1CJfkZEuxPRGJfDRywcjxDJc0ROs2lM/UHEike5EIAABHYogAEBF0ZdAvn+wU4imU9CjXUFivBmIc5njOZMhFtA6RCAAATeIIABARdF3QLdfXbLZm3zFWNp3JvqDhahAFtpy18bpXGgKz3tmgiVjVIhAAEIVCSAAaEiJiwaTeCSpbnD9tD2mUFMc0dbG4ffM9ENz8lzcxue3vDPbDbrxKEn9AABCEDgtQIYEHA9uCrQ1X/1pfvS/jNI6E1MHK/ra/vXF2nLIw0PTClMn/9jV+EQDAIQgEDIBOL1F3jIcFUu54pCwW7ipneR0LEaa1G/TfMGJvqe4zh9mbap/6vyuaJ3CEBAHQEMCOqcte+dXtibP2o3bbfjt/EWYwLvVr4LY+R+hKiLHOexTNvUtZErHgVDAAIQqEMAA0IdeNhamUCmkD1gfzrkI8R8Y2U7gl81zMNbR7Qhs/TkMwO4VXLw54EKIAAB/wUwIPhvrnzGfMF+mJiSRLTby/dRCIPJJiJ6rlyIaeiHhKEg1AABCEAgSAEMCEHqK54711c8U9O07U86dEgOYKJP+EzyKyZ+cHt+kbsyaX2Fz/mRDgIQgEBoBTAghPZo1CpsUcE+gFlOL3e9TYasJh7T5IWAQ44w8dRy7EaN7zp/pv6AF3kQEwIQgEDUBTAgRP0EY1j/ZQNLDmlydn/1mw8JjRMbR15YsRvvfmo17Y7QSElITiNu2P4qwb9/ttKFqdSj1cTBWghAAAIqCvw/YxlN56PkYuMAAAAASUVORK5CYII=;" vertex="1" parent="1516">
                    <mxGeometry x="3.177600000000002" y="3.6000000000000005" width="6.105969230769232" height="5.787507692307694" as="geometry"/>
                </mxCell>
                <mxCell id="1524" value="" style="shape=image;verticalLabelPosition=bottom;labelBackgroundColor=#ffffff;verticalAlign=top;aspect=fixed;imageAspect=0;image=data:image/png,iVBORw0KGgoAAAANSUhEUgAAAggAAAHtCAYAAAB8nYbPAAAgAElEQVR4Xu3deXxcddU/8HPuTNJ0Y98VEBRRRFxQAR/ZHjcQfXDBqixtbrqkcycNNLmTlk0GKKXtTNKSZm6aLnPTsqhFcEMURUFFH33ABXFlpyhI2emeZO75vaYCP5C2meXu30/+zfd7lvf3tj2d5V4m/EAAAhCAAAQgQAt7V7zZaUgmX0vRIPRILTQb6aV7x8q4rzhacssr+59qeuyFJXr2hVriBbGHg0iKnBCAAAQgAIEwCAwMDIx7qdTwpXItQrJAI20/r+raSBu+O54mfPuV+P+3z4Q1N06aVPIqX71xMSDUK4j9EIAABCAQKYHcwJrjtJJjbB8KmMaRyFmBNCB0PTOXRJzvmemWbwZSwy6SYkAI24mgHghAAAIQ8EQgb9k/IaIjhGgcE+3tSZLagr5ERC+WaETmGNMPrS2E+7swILhviogQgAAEIBASgYXWqiOHeGj6WGnqDElJlZSxVJNSb0d62oOVLPZqDQYEr2QRFwIQgAAEAhPI9a0+gdg5mpmWB1ZEnYlFaAYxP5Exmr9fZ6iatmNAqIkNmyAAAQhAIIwC2YGBcRNLjSuE6FgiOjKMNVZVk9BTzPSTEXKumGNM/XtVe+tcjAGhTkBshwAEIACBcAh0W/ZtQnQMER0Qjorcq0KIntWYN3Wmmn37jAIGBPfOD5EgAAEIQMBngWw2q03Y79AZRNTvc+pA0jHRL6VE07Th5x/r6Oh49R4LXhSDAcELVcSEAAQgAAHPBfLL7M9TiQ4mpiWeJwtbAuZFZqp5jpdlYUDwUhexIQABCEDAE4F8YdU5xFovEe3lSYIoBGVeSyS/N1P6Ai/KxYDghSpiQgACEICAZwLdA6tPdUrOLUw0zrMkEQksRENCTkeXMbXgdskYENwWRTwIQAACEPBEILd0zWGcKD3sSfCIBxXmLz2x5d7vLe5Y7NrnEjAgRPyiQPkQgAAEVBDotuzjRegGYjpMhX5r6XGbsy3XqDX9zK37JmBAqOUUsAcCEIAABHwTyFmrj2F2vkFC7/AtaXQTPcksMzpTLbfU2wIGhHoFsR8CEIAABDwTWLt2bWLdM5ueJ6KJniWJWWAh2kycOC6TmvynelrDgFCPHvZCAAIQgIBnAosGBt+qlSTQ5xF41pwPgYVL786kptU8JGBA8OGQkAICEIAABKoT2P6ZA6LriOit1e3E6lcEePsrCfKlWt9uwICAawkCEIAABEIlkOtfeTRL4puxeJZCwLJC8kSJhmfMNVqrfuATBoSADw/pIQABCEDg9QJ5y95IROPh4o7ANtn2osPOcZcaRlUPe8KA4I4/okAAAhCAgAsCect2iAj/Nrlg+doQG+TFvsvTF8yqJiwOoRotrIUABCAAAc8Ecn2rJmmJxNdFBP82eaEslDbTulVpaBxCpVJYBwEIQAACngnk+uwvs8ZLiWQfz5Ig8JAQfTVj6AsrocCAUIkS1kAAAhCAgGcCuWWrT2Bx7iShRs+SIPC/BZjXmqnmL1XCgQGhEiWsgQAEIAABzwRyBXs6My33LAECv06AiRbuNZayuq5v3RUNBgRcOBCAAAQgEJhAd6FoCnMusAIUTfyCPD9tXrpjFQYERS8AtA0BCEAgzAJ5y76KiC7Etxb8P6URGn5yrjHjIAwI/tsjIwQgAAEIjCLQbdm3CdEnABWMwD+HHpu/+ILsxTvLjrcYgjkXZIUABCCgrMDChasmJiZqi4hoprIIIWhciJ5t1OiE82fqD+yoHAwIITgklAABCEBAJYG8ZfdjOAjHiTPRDZ2Gfg4GhHCcB6qAAAQgoKxAe+GiUw/hI36qLED4Gv8XOzS1s02/9T9LwysI4TssVAQBCEAgtgJ4zkL4jlaEZmTS+goMCOE7G1QEAQhAIPYCC1dc9+bE8PCNRHR87JuNYIOalI7oSE978LWl4xWECB4kSoYABCAQNYGcZWeYqPzBRPyEUOB5efHEq9IX3IUBIYSHg5IgAAEIxFVgobXqyARp3yeit8a1x6j3VZLSn+ekpx2NASHqJ4n6IQABCERIIG/ZEqFylS3VNPTXvauAtxiUvRTQOAQgAAHvBfKW/RIRTfQ+EzK4IPC4aeiHvBIHA4ILoggBAQhAAAJvFMhZ9tlEZDPhKY1RuD6EZP1jpXUn983K/q1cLwaEKJwaaoQABCAQMYFc36pJrGkWEe0dsdIVLldGRmRk6dz0jA4MCApfBmgdAhCAgFcCeWvwWCK5x6v4iOudABOv6TSap2BA8M4YkSEAAQgoK3BVoX/LGG5qUhYgwo0Lye1OSabMmTX1CbzFEOGDROkQgAAEwiaQK9iXMtMVYasL9VQuICQtGaOl/NkR/EAAAhCAAATqF8gX7KuJ2SSSZP3RECEoAQwIQckjLwQgAIEYCrStyh508NCbv5aQxEkxbE+xlqS1M6WvwCsIih072oUABCDgtkChsHbCZt64iIlTbsdGvGAEhpkOw4AQjD2yQgACEIiNQL5gryKmltg0hEYIAwIuAghAAAIQqFsAt1KumzB0ATAghO5IUBAEIACB6Aj09t46Zij5r38Q8T7RqRqVViKAAaESJayBAAQgAIE3COT7Vh5KmnYdEX8EPPETYKap+AxC/M4VHUEAAhDwVCA7kN+nYWTC4Bgec4aniRA8UAEMCIHyIzkEIACB6AkstFYdqRH9mUlLRK96VFypAAaESqWwDgIQgAAEaOGqVRMT27TyI5zxE3MBDAgxP2C0BwEIQMBNgbxlP0FEB7oZE7HCKYABIZzngqogAAEIhE5gUWHVZI23P8J5fOiKQ0GuC2BAcJ0UASEAAQjETyC/zP48lah8Q6Q94tcdOtqRAAYEXBcQgAAEILBLgbw1eCyR3AMmtQQwIKh13ugWAhCAQNUCuFNi1WSx2IABIRbHiCYgAAEIeCOQt4pXEvEl3kRH1DALYEAI8+mgNghAAAIBCnRbg/OFxCSihgDLQOqABDAgBASPtBCAAATCLGDbdtOzW3k1iUwKc52ozTsBDAje2SIyBCAAgUgK5HJrxmvjnZyQpCLZAIp2RQADgiuMCAIBCEAgPgL5fvs6EjonPh2hk1oEMCDUooY9EIAABGIqMKt37scOTR7545i2h7YqFBCWj2JAqBALyyAAAQjEXWDxYnsPp4nvFZFD4t4r+tu1wDDTYRgQcJVAAAIQgADlVqw5jIdKg8R0EjgggAEB1wAEIAABCFBPz8q9Sk2Jm5noZHBAoCyAAQHXAQQgAAEIUHeheLAwrwMFBF4RwICAawECEICA4gKLBwYOLJUay49wxg8EtgsISUvGaLHxGQRcEBCAAAQUFcj1rTpBS2jfEqH9FSVA2zsQwICAywICEICA4gLd/fZyEZquOAPa/w8BDAi4JCAAAQgoLNBtDf6PsJRviDRRYQa0/kaBm8fK+Cnp9KSNeIsBlwcEIAABxQQW9q/8UEISv1GsbbRbgQATr+k0mqeUl2JAqAAMSyAAAQjESSBnrXKYNPz9H6dDdaEXYRoacrYuvDid+ioGBBdAEQICEIBAlATy/cWFJNwVpZpRqz8CQvKvdQ3rPrh0evYfGBD8MUcWCEAAAqEQ6LaK80UoQ8zJUBSEIsIm8Lhp6K/eZhsvMYXteFAPBCAAAQ8EFlkrv0jEazXSPIiOkHEQMA39dTMBBoQ4nCp6gAAEILALAdu2m57dItcQ8QxAQWBnAhgQcG1AAAIQUEwgb9k3EdHnFWsb7VYjINJhplsWv3YLXkGoBhBrIQABCERMoGVh18SjJr7zpYiVjXJ9FtCkdERHetqDGBB8hkc6CEAAAkEILFmyYv+RxuQviOiIIPIjZzQERGhGJq2v+M9q8QpCNM4PVUIAAhCoSiC3Ys1hPFwqEtEpVW3EYtUEHkgw67NTzb/EgKDa0aNfCEBAOYHcmjXjeWPpR0T0YeWaR8NVCTDRDZ2Gfs6ONuEVhKoosRgCEIBA+AWutq7fs4GGngt/pagwUAGhpzaWNrw9296+w8+oYEAI9HSQHAIQgIC7Aj2FlW9zOPGAu1ERLaYCd5qGfurOesOAENNTR1sQgICaAnnL/j0RvVfN7tF1pQJMfF2n0XzertZjQKhUE+sgAAEIhFwgZxV1IlrMxLuHvFSUF7RAid5pztL/hgEh6INAfghAAAIeC+StVacTazeTUJPHqRA+6gLimL/Zd+KSGydNKmFAiPphon4IQAACuxDoLhQ/LMxv+Joa0CDwBgHmtWaq+UuVyOAthkqUsAYCEIBAiAXyli0hLg+lhUdgC5GkTKNldSUlYUCoRAlrIAABCIRUIN8/mCeRzpCWh7JCJKAJnd6R1n9YaUkYECqVwjoIQAACIRPIW4NXEsmFRJQIWWkoJ2QCkkgcn2md/JtqysKAUI0W1kIAAhAIicCFvYtOnJCYeNMYbto3JCWhjPAKPO4k+NSu1uaHqikRA0I1WlgLAQhAIAQC2ewdyYn7PbpMiKaGoByUEG6BnT5rYbSyMSCMJoTfQwACEAiZQM6yf8BEp4WsLJQTOgHeWH5Yl2k0/7aW0jAg1KKGPRCAAAQCEsj323eQ4AmNAfFHKu2Lpefvv3JWx5G1Fo0BoVY57IMABCDgs0B3oXiwsHYrkRztc2qki5gAM93XmdKPqadsDAj16GEvBCAAAZ8EcktXHMaJZLH8krFPKZEmqgJMP0loyfNmt573ZD0tYECoRw97IQABCPggkM1mkxP2O/TXRHSsD+mQIuoCIh1mumVxvW1gQKhXEPshAAEIeCwwMDDQsKHUOORxGoSPhQDf8pt9xn12tOcsVNIqBoRKlLAGAhCAQEACuf41R7OU7gsoPdJGSMAR54Wu9NQ93SoZA4JbkogDAQhAwGWBRVbxZI24fN/8Q10OjXAxFNjkbJp7WVvbQrdaw4DgliTiQAACEHBZoLvfvkKELnU5LMLFUUAobaZ1y83WMCC4qYlYEIAABFwS6C6sOlVY+wkR4e9pl0xjG0Z4jpluXuR2f7jw3BZFPAhAAAJ1CszvtU5sTI79eZ1hsF0BAWG6NZPSz/CiVQwIXqgiJgQgAIE6BBYUVowkOYknNNZhqMJWERlhTWs2U83Xe9EvBgQvVBETAhCAQI0C3Za9WIguqHE7tikkoBGd1GHov/CqZQwIXskiLgQgAIEqBbr77ctEKFvlNixXUICJTug09PLNszz7wYDgGS0CQwACEKhcIN83eBJp8rPKd2ClwgIPJSTxmdnpyX/10gADgpe6iA0BCECgQoFcobiamSdXuBzLlBXgBx2m5q5U8y+9JsCA4LUw4kMAAhAYRSBn2Xcy0cmAgsCuBXhES9J7O2Y0/9kPKQwIfigjBwQgAIGdCFy9dPmPGxINHwMQBCoQ2GIa+rgK1rmyBAOCK4wIAgEIQKB6gdzSNYdpydI3Rej91e/GDsUE7jYN/UN+9owBwU9t5IIABCDwssCSgdWHDJecNXhrAZfEaAJCcvuYhka9ffq5/xhtrZu/x4DgpiZiQQACEKhQIG8N3kckR1e4HMsUFhChr2bS+pV+E2BA8Fsc+SAAAeUFsrbdNGELbVEeAgCjCjDRDzsN/fRRF3qwAAOCB6gICQEIQGBnAj3L1nzAcUq/IqIGKEFg1wLyA9No+VRQShgQgpJHXghAQDmBXL99CjtUJKbDlGseDVclMCIjztz09ECfx4EBoaojw2IIQAACtQvkLHsOEy2oPQJ2qiIwIqWZc9PTBoLsFwNCkPrIDQEIKCPQYxVPdojvVKZhNFqrQImIvmoa+vxaA7i1DwOCW5KIAwEIQGAnAnlr9elEzq0AgsCoAkILzLR+4ajrfFiAAcEHZKSAAATUFsgX7I3ENF5tBXRfiYBp6KH5dzk0hVQChzUQgAAEoiaQ77eXkNAsItKiVjvq9VdA0xIf7Jg5+R5/s+48GwaEsJwE6oAABGIlsHbt2sRjT2+eyyzzYtUYmvFEQEg+njFabvckeI1BMSDUCIdtEIAABHYlcLm19PTxNAGfO8BlMrqA0P1cciZ1tk+9d/TF/q3AgOCfNTJBAAIKCVxdGPhVAzeeoFDLaLUmAX4kofE5s2dO+d+atnu4CQOCh7gIDQEIqCmQt+xfEtGH1eweXVcj4CT4bV2tzQ9Vs8evtRgQ/JJGHghAIPYC2Ww2OX6/Q29mos/Evlk06IKAPGcaLXu7EMiTEBgQPGFFUAhAQEWBSwo9p02kiSsSnHyziv2j52oE5K6JieH/bm1tHa5ml59rMSD4qY1cEIBAbAV6+le/yXFKXyfmj8S2STTmjoDQj0eS2rS5rVPWuRPQmygYELxxRVQIQEAxgbxll99HPlyxttFuDQJMtLDT0OfWsNXXLRgQfOVGMghAII4CpnX1xw6gA34cx97Qk7sCQvTDjKGf7m5Ub6JhQPDGFVEhAAFFBLoLxQ+Lxj8koYmKtIw2axVg/qaZav5irdv93ocBwW9x5IMABGIj8PITGot4ayE2R+pZI0Oy9fYnS8OfXtrevs2zJC4HxoDgMijCQQAC6ggsslalNdL61OkYndYqMOIMf2lu24y1te4PYh8GhCDUkRMCEIi8QI+15mSHSndGvhE04LXAMBHPM43mK7xO5HZ8DAhuiyIeBCAQe4G5ixZ9Yp8J+94W+0bRYN0Cw7Jt8ML0TL3uQAEEwIAQADpSQgAC0Ra4qrf/gTHJprdFuwtU74fAw/LgIVb6qsf9yOV2DgwIbosiHgQgEGuBfL+9hITaiCgR60bRXN0CjtD7utL6H+oOFFAADAgBwSMtBCAQLYHsHXckJ/ztUZOEro5W5ajWfwHZJuR8IWNM+77/ud3LiAHBPUtEggAEYiyQ7e09fkJyYugeyRtj8si2NkxD33tOnpyRS2f/FdkmiAgDQpRPD7VDAAK+CSyyVt6hUeIU3xIiUVQFHtdYO6sjNeX/otrAK3VjQIj6CaJ+CEDAc4G8Zf+aiI7zPBESRF4gkUgeNLv1vCcj3wheQYjDEaIHCEDAKwEzlxu///i91zDx573KgbjxERhytH0uapvybFw6wisIcTlJ9AEBCLgukF16zdlN2rhVSU42uR4cAeMm8NONsvnMbDq9MS6NYUCIy0miDwhAwFWBXH//fkxjv00iJ7gaGMFiKMC3JxM89YLWKevi1BwGhDidJnqBAARcE8hbdvl95ANcC4hAsRQoSWnTs8NPz110wYWxeyYHBoRYXrJoCgIQqEdgcb/9lpLQI/XEwF5VBPgHptH8qTh2iwEhjqeKniAAgZoFXn4I001EtHfNQbBRDQGma82UPjmuzWJAiOvJoi8IQKBqgXzfypOIE4PEdFjVm7FBKYFtsm0zjx16y0Ut7U/HtXEMCHE9WfQFAQhUJbCwd8WbE8nkn4ho96o2YrGSAg5J6+b161Zms1knrgAYEOJ6sugLAhCoSqC7b/CjosntVW3CYhUFhkTo6kxaz8a9eQwIcT9h9AcBCIwqkLOK5zLxtaMuxALlBbbK5jsuSaf/WwUIDAgqnDJ6hAAEdiqQt+yZJJQnpvFggsBoAk85Txyba7v4d6Oti8PvMSDE4RTRAwQgULNAt2WvFKKpNQfARmUEtBId0zFLv0+VhjEgqHLS6BMCEHidwMDAQMOGkcZOYroaNBDYlYCQlETovK50y9dUksKAoNJpo1cIQOBVgUsK3a178F7LQAKB0QRGZOh3zzvPNy+cNVeZVw/KJhgQRrsy8HsIQCCWAvMLA883cuMesWwOTbknIPSUI/KprrYWJT538Fo4DAjuXUaIBAEIREQgVyjezcwfiEi5KDNAgZHE0B5zW1tfDLCEwFJjQAiMHokhAAG/BbK9vbuNTYxfkWBtkt+5kS+CAk7pLWbbtMciWLkrJWNAcIURQSAAgSgIXGlZn22khhsSlBwbhXpRY3ACQvSjEWr88oXGOc8HV0WwmTEgBOuP7BCAgE8Cixfbe5TGUPlOicf6lBJpIiogRD/VRJo70y2PR7QFV8rGgOAKI4JAAAJhF8hbgxuIZELY60R9gQs8vnEsvT2r61sDryTgAjAgBHwASA8BCHgvcGHfoq/ure17ufeZkCH6AnKLabR8Jvp91N8BBoT6DREBAhAIsUDOKn5MY75OhPYPcZkoLQQCwrQik9JnhKCUUJSAASEUx4AiIAABLwQW9Q/+lybO9UR8qBfxETNGAkzXbNSGLsq2tm6OUVd1tYIBoS4+bIYABMIq0LNy5V7OUOIJIhoT1hpRV3gERJxpmfTUVeGpKPhKMCAEfwaoAAIQ8EBgUWHVJzTWbvMgNELGSYBpSBy6OpPWs3Fqy41eMCC4oYgYEIBAqAS6++0WEcL/BkN1KuEsRogvyhjNeGDXDo4HA0I4r1lUBQEI1CiQt+yZRLSIiCbWGALbFBIwDR3/Du7kvAGj0B8EtAoBFQTy/fYSEjpfhV7RY30CmsNHd7Q1/7m+KPHdjQEhvmeLziCglMDatWsT657dlCEhvFys1MnX0qw8Iw5Ny7S1fKeW3arswYCgykmjTwjEXODia7o79mzYqzvmbaI9dwS+bhr6V9wJFd8oGBDie7boDAJKCSzoW745qTXgIUxKnXpNzT4vXDopk5r2p5p2K7QJA4JCh41WIRBXgbxl34OHMMX1dN3ta+P6xxLZbNZxN2o8o2FAiOe5oisIKCEwv2/13o1csoh5khINo8n6BDR5lzmz5S/1BVFnNwYEdc4anUIgdgLd/cVPi/D3YtcYGnJdQIRuHS5J80XtLU+7HjymATEgxPRg0RYE4i5g23bTs1vp/0jo3XHvFf3VJ8BEP2PWzulITflnfZHU2o0BQa3zRrcQiIsA5y0b7yPH5TQ97EOIns0Y+j4epohtaAwIsT1aNAaBeAo029mmo7ccehc+lBjP83W7q63OlpsuaTPOcjuuCvEwIKhwyugRAjESmL9sxVkNTsJi4n1j1BZa8UagYBp6mzeh4x8VA0L8zxgdQiA2Arm+4nGc0L5JIm+OTVNoxBsBpmtkY+LiTGbyJm8SxD9qZAeEbDarHXjggYl6jujJt79dsqeeOlJPDOyFAAT8Eejt7R0zlJy41Z9syBJxAUdYOz+TmtIX8T4CLT9SA0L5+e6vaL3Y8MJX9hzZq7kePWZ6quQ4k1+JwZoz8k9t/V+XtF78ZD1xsRcCEHBfIGcNnsEkt7gfGRHjJSAjzDyvM6VfHq++/O8m1ANC+4pLjz10+K1feIVFSC70ksghGRqmoduaqGn7LTg7jeaLvMyH2BCAQGUCLz/Cub+y1ViltABzh5lqXqy0gUvNh3JA6O4vtopwc4lH9k1I8q0u9VpLmF+XNyVIu3S2MeX2WgJgDwQgUJ/A9r8PiHMkNLG+SNitgoBp6KH8dy2K9qGAHBgYaNi0ac+k07Rpc6gRhf6mbRv//nKNHR2TtoS6VhQHgRgIlD9rNGHfQ64m5q4YtIMWvBUYdoQ+1JXW/+BtGnWiBzogzOq95K0HNxz+TiaZwqJF6nuqwvylTKp5rTqXCjqFgP8CVxX6Z4/hph7/MyNjxATWk1DKTOs3R6zuUJcb2ICQtwZnbKHN546lsSeGWmhXxTEvKv9aK9GajrbmP0e2DxQOgRAK5ArF3DANtzZyI95aCOH5hKUkIaIh2fati9MzPx+WmuJSh+8DQveya98jzsgKIjqSiHaLB6Q8WKLSc3OM6cfFox90AYHgBfKWXf67Hz8QGE1gy5aRDe++tL39odEW4vfVCfgyIGSzaxv33ffpxi087jkiaqiuxEit/sNY2Xzi008/vTWbzeL+CpE6OhQbFoHs2rWNE5/Z9FMh+q+w1IQ6QiogtMVM6+NCWl3ky/J8QLjasvZMUtMSJn71fgORVxulARG68tB9x18+adKkUtx7RX8QcFOgr2/13lsTspREvuJmXMSKn0BJSk9LsvTRua2t98Wvu3B05OmA0G3ZC4T5EEX/sC8Vooczhr4kHEeNKiAQfoHcUvsUTtAd4a8UFQYtMETbCv+Qf8210tmNQdcS1/yeDQi5QnEpMxvlz/DFFW+0voRos8Z8YWequXe0tfg9BCBAlLfs+4noCFhAYBSBX20bGvn8xRdMfwpS3gm4PiAsXmzv4TTRLBG6wruyoxWZmc/aMPzSj7Pt7S9Fq3JUCwF/BLKFwoQJPK7858P1v5P86QBZfBTYZhp6k4/5lE3l6h/GXMH+DDN9V1nNXTS+ydn4wvjkxDPNmc0/hw8EIPB6gbxl/4SI/hsuEBhVgHmtmWr+0qjrsKBuAdcGhO6CPV007iORxrqrim+AJx1HZnS1teCBM/E9Y3RWpUC+v/hJcWglM+MRzlXaKbecebGZau5Qru+AGnZlQMj32+eRUPmxmjG5r4GXp8HrmeTMTkPf/pwH/EBAZYHu/tXvE8f5ATHtr7IDeq9IYOnExNDc1tbWcN+Sv6JWorGo7gGhxyqe7BDfGY12w1OlcGL/TGry+vBUhEog4L8Abobkv3lEMw4T8xw8pdHf06trQOi2Bv9HSL7jb8nxyaZR4pQOY/LP4tMROoFA5QL5gv15Yrqp8h1YqaiAEEnWNFrwwXefL4CaB4RcwZ7OTEuJaIzPNccmnZD8c4i2Tr/YMH4Qm6bQCAQqEMgVim3MfI3KX4OugAlLyl9rYTY6U839wPBfoKYBIV8YPIdYygeGh6jUcWbbbzQv8jQTn2Gm9bvrCIWtEIiMwPb/XBAtJqbxkSkahQYi4JAjXcZUZe+lEwj6a5JWPSAssoona/jMgevnlhwaOeAC3PTDdVcEDJdAZuDKt+7m7Ll2rIx/f7gqQzVhE2DijUTycXygO7iTqXpAwIeKPDssMQ0dk7JnvAgcBoG8VbyEiK8MQy2oIdQC619+awGfUQnwmKoaEPKFYp6YOwOsN96pRTrMdMvieDeJ7lQV6C4MLhWWNlX7R9+VC4jQ/2TS+vcq34GVXghUPCDk++0lJFT+w53wohDE3H6P2c0ilDHTugUPCMRJYEFh+fIkN0zDrZTjdKre9WIaesX/NnlXBZqHvUQAACAASURBVCJXdAhXFvpbx3CDpVECL4H7cc2Ic6KZnnqXH6mQAwJeCxQKayds4U3lr0PjVspeY0c+Pj9jpqbsR8zbP8ONn2AFRh0Qenuv220oMXwNMTUHW6o62UXoykxa/6o6HaPTuArM71u9d2NClir6yPe4HqtnfQnLRzOplp96lgCBqxIYdUDIWfY3megLVUXFYhcEeLlpNLe6EAghIBCYQHe//W0ROjOwApA4QgJySyLRMGN263lPRqjoWJc66oCAby0Edv7DpqHjwVeB8SOxGwL4+8MNxfjHYOZ7eMvIJzs6pj0X/26j0+EuB4S8ZT9BRAdGp514VcpEP+o09E/Gqyt0o4LA/N7ivo0JfgQ3Q1LhtOvvER9KrN/Qiwg7HRB6LPtEh+i7RLSHF4kRsxIB/pNWkrM7Zun3VbIaayAQBoH8suJR5NB1RPy+MNSDGkIvcK1p6JNDX6WCBe5wQDD7s0fvQwcNJqXhWAVNQtWyCP1OSjypq735oVAVhmIgsBOBfKE4m5h7AASB0QSEOL9p/aNzstmsM9pa/N5/gR0OCAutFbpGiRVMjHse+H8mb8jIRCfgdqMhOAiUMKrA/N5lRyWTDb/QSNtr1MVYoLYAk7V3E3Xqur5VbYjwdv+GAWFgYKDhpVKDycTzw1u2epU9PvTEAddccPFT6nWOjqMicNmSJYdMbNz9sajUizqDExCRe/48bt2Jg3oWw0FwxzBq5jcMCD2FlW9zOPHAqDuxwFeBjfTib7LGBcf7mhTJIFCFwLy+/iebtKYDqtiCpeoKXGwaOv4TGvLzf8OAgO8th/bESiwytzPdkg9thShMWYF8wT6fmBYREb6aq+xVUFnjQtySMZrtylZjVZACbxgQ8L3lII9j17mF6dZMSj8jvBWiMhUFctZg+cb5BSIZq2L/6LlygS2lzZf/cf87r7xx0o2lyndhZVACrxsQ8pa9jogODqoY5B1dQIi6MoaeG30lVkDAe4Fsb+9RjdqY3zdqjXjlwHvuSGcQoueF5HNdRsvPIt2IQsVjQIjYYTPRTdtGJHVRe8vTESsd5cZQIG8VLydiPDckhmfrZktC9LQwp7pSzTe5GRexvBXAgOCtr1fRbzMN/TSvgiMuBCoRyFvFASKeUclarFFcgOU0M9Vym+IKkWv/1QEhb9m9RGQQEe59EIFjxK1JI3BIMS4xtXju4YePOfIeJtozxm2iNZcE8PeVS5A+h3l1QOi2BlcLCW536fMB1J5ONt6fWLf/8tbs5tpjYCcEqhe42rL2TNLYG5gIr2JVz6fajsdlU+KdmczkTao1Hod+tw8I+QH7HVSiQSI6Lg5NKdLD8CbZmLksPesaRfpFmyEQWGzbe5S2UD8RfTkE5aCEMAsw3SsyMjljTP9jmMtEbTsX2D4g5KyizsRFQEVO4AkhnpExmr8fucpRcCQFvrp0ySd3S+z+w0gWj6L9FWBebKaaO/xNimxuCmBAcFMziFgiHWa6ZXEQqZFTPYGcVXyJiSeq1zk6rk5A/iQTksdnJuOthercwrWas9ls44T93tJFJFeGqzRUU7GApn3RnDnlmxWvx0IIVCnQXSgeTMy/FaJ9q9yK5eoJ/MU09Hep13b8Ouar++23NAg9Er/W1OoInxJW67z97Lanb/BdjiariQiPf/cTPqK5hqlxrwuNc56PaPko+zUCGBBicjkIyXUZo+W8mLSDNkIkkCvY05lpeYhKQikhFWCihRMSQ5e2trYOh7RElFWFAAaEKrBCvvR509D3CnmNKC9iAldbxcMbie8TonERKx3l+i7AyycmtrVhOPAd3rOEnLNWnsGUuMWzDAjsp8BPh0bky7gNs5/k8c318lsLf4pvh+jMPQH+k2k0v9u9eIgUBgHG0xvDcAyu1tBuGvpSVyMimJICeHibksdeW9PCc8x0c/lx3/iJkQAGhBgd5vZWmO5LatqnL2idUn4yJ34gUJNAt2VfIETziQiPcK5JUJ1NTHJep9FynTodq9MpBoQYnvVW2fxfl6TTv4pha2jJB4GcVTz35RunNfiQDikiLjA0Ivvhbc2IH+JOyseAEM9zJUfofV1p/Q8xbQ9teSSArz17BBvDsCL0NLF2dsaYcnsM20NL5Rek8RmEeF4H5eevZwx9v3h2h668EshZxflMfKFX8RE3NgLPkdB0M63fHJuO0MgbBDAgxPeiGCKmy8yUviC+LaIzNwXyVrFIxLqbMRErngIvaM8tnDezc248u0NXrwhgQIjxtTBCw79eJw+fZ6UXPBjjNtGaCwJXWpbVRE2tTKy5EA4hYi6wcf1jDdlsdiTmbSrfHgaEmF8CjpQWPbntpezijo4tMW8V7dUokB+4YR92hmwR+XSNIbBNGQF5sMlJHN/WNuVZZVpWuFEMCDE//JKUHGI+ao4x9e8xbxXt1SCQ7b1utwnJ4ZVE9MUatmOLWgJ/YM1p7pw59V612la3WwwICpw9E/2y09A/okCraLFKgav6lv10jDbm1Cq3YbmCAsy0ojOlz1CwdWVbxoCgyNHfv+2BY5fPnv87RdpFmxUK4FtMFUJh2UOH7DP+yEmTJpVAoY4ABgRFzlqIntUc7cOdbVPuV6RltLkLgZ7Cyrc5WvIOEnkzoCCwKwERvieTbv4glNQTwICg0Jkz0Q2dhn6OQi2j1R0I9CwffJcM06CwfABAEBhNgEUO6Uy3PD7aOvw+fgIYEOJ3prvq6F+s0dTOmfqtarWNbl8rkLPss5noeqhAYDQBJlq4YT1ls1l962hr8fv4CXCXNb97PzqwI36toaMdCQzL0MhIads7Lm1vfwhC6gksHhg4sFRq/Of2x3rhBwK7EmAaNFM6bpyl8FXCuPe6eqcvROdkDP0G9TpXu+O2pdmD3pI4tDwc4AcCowk8ahr6YaMtwu/jLYABId7nu9PuTEPH/yAVO/vL+/oGx2vjpyjWNtqtQUCIZmcMfUkNW7ElRgIYEGJ0mNW0wkQ3dhr6pGr2YG10BfL9g7NZZJ4QjYtuF6jcDwEW+XJnuuUbfuRCjnALYEAI9/l4Wh0Tr+k0mvE/Sk+Vgw/eXSh+SZi/HnwlqCDsAkLSkjFa7LDXifr8EeALi737TtiW/P4YGYvvufpjHp4sQj9OJJNTZree92R4ikIlbgrM7+3dV0s0/SvJDXgIk5uwMYzFxE8KO7qZarkthu2hpRoEtr8PnbOKOhMXa9iPLREXwP8YIn6Ao5SfLxR7iHl2vLtEdy4IvMjEkzuN5u+6EAshYiKAASEmB1lHGw8kEsmT8SpCHYIh3Zrvt9eQ0HkhLQ9lhUhA05wPdsycek+ISkIpIRB49ZPs3dbgaiGZHIKaUEIAAvhWQwDoHqbMW3YvEc3yMAVCx0VAZMRMtzTEpR304Z4ABgT3LCMdySE6qcvQfxHpJlD8doFc/5r9NCotF6EzQQKBUQT+Uio5H58za+oTkILAfwr8/wGhf/WnRUrXEfHuYFJSADdGicGx9/SsHes0bbqOiD4fg3bQgqcCcq8j3NyV1v/gaRoEj6zA626Wk7fsdUR0cGS7QeH1CGwjknmm0TKvniDYG6xArjB4N+MhTMEeQgSyO+KMvDjyQs9V53fOiUC5KDEggf8cEMqPAj4ioFqQNgQCjjhTutJT14SgFJRQpUD7ikuPPWT4cHzQrEo3JZcLPWKm9cOV7B1NVyzwhtvt5i1bKt6NhfETEOneexxfout4eluUDndxYc07S1y6hYjwl36UDi6AWkdoeMtcYwbuqBmAfdRSYkCI2on5UC+e/+4Dsosp8suKR7Foq0XkAy6GRaiYCmykFy/NGhfgrcSYnq+bbe1oQPgsEX3LzSSIFTmBP5qG/p7IVa1owd3Wqv8R0r6jaPtouxoBoQUbx9HlWbxCWI2asmvfMCAstoqHl4j/TERNyqqgcSLiB02jGZ9HCfm1sHjg2gNLpRF8RS3k5xR0ecws4sgNZlo/N+hakD86Ajt85G+uYE9npuXRaQOVeiDwJGvO6Z0zp97rQWyEdEEg3zd4EmnyMxdCIUTsBeSFx7QH/mvpzKv/EvtW0aBrAjseEPrXHE1UWs1C73ctEwJFTmCESvdulQ3N2fRsfE86hKfX3T94Nz53EMKDCWFJzDKzM9UyEMLSUFKIBXY4IJTr7bbs64Xo7BDXjtI8FhASEaFzutItX/M4FcJXKZCz7AuI6ComwqfRq7RTbrmmfdGcOeWbyvWNhusW2OmAUI6ct+zye5sH1p0FASItkEgkD8LDnMJzhN2W/UUhWhueilBJiAXaTUNfGuL6UFqIBXY9IPTbq0ioJcT1ozQfBNihqZ1tOh4H7oP1aClevpXy5tHW4fcQIKInWKPpnTP1W6EBgVoEdjkglAN29xfnifDFtQTHnvgIiMglmXTLVfHpKJqd5PvtAgkZ0aweVfslwESbSaMvYjjwSzyeeUYdEHp7e8cMJXe7hEguiScBuqpIgOlvZkp/Z0VrscgTgXy/fR0JneNJcASNl4Am7zJntuAbC/E6Vd+7GXVAKFe0qL+Y0oQt36tDwlAJMHF/p9GM/70GcCrd1uB8IbkwgNRIGTUBoRfMtL5n1MpGveETqGxAKAx+QmNZiSc9hu8A/ayIiX7U0NAwtX36uf/wM6/quZasWLF/aaShX0Q+p7oF+h9NQO5NMH92dkp/dLSV+D0ERhOoaEDY/irC9iHBuYmIJ4wWFL+Pr4A4zpcybVPxCXqfjnjt2rWJdc9sKt/6/DM+pUSayArwH3mkNLmzHTc3i+wRhqzwigeEct05y17PRPuGrAeU46/AP7WtpWM6OqY9529aNbPlC/ZfiekdanaPrqsT4O+aRvOZ1e3BagjsXKCqAaEcBo+DxuVUFjANveprB3LVCfSsXLmXM5R4trpdWK2mAJ6doua5e9t11X/J563irUR8urdlIXr4BbRPmcaUH4S/zmhW2DNgv9sp0Y1EdGQ0O0DVPgrcZhr6aT7mQypFBKoeEHp6Vu7lNCUKRPRlRYzQ5g4EHHKeeXH4xWlXnd+Bxwy7fIUssVYdOczaDXgWisuwMQw3LMNbh0ulD3+1PfX7GLaHlgIWqHpAePlthllE1Btw7UgfpACTOCS9XamW8jMB8OOiQK6/+N8s/BMXQyJUTAUccRY8XtqUXdrevi2mLaKtAAVqGhDK9S6yVn49wclJIlJzjAD7Rmq3BIS+YKb1m90Kp3qchb0r3pxIJh9X3QH9jyogRHSdaeiTR12JBRCoUaDmf9zNZfM+s3/poG8w89gac2NbHASYrtm49/iu7KRJQ3FoJ8ge8n32x0mjHwVZA3JHRmCLaeh4kmdkjiuahdY8IJTb7baK5wrxtdFsHVW7JSDE12WM5vPciqdqnLxl30FEp6jaP/quRkCaTaNldTU7sBYC1QrUNSCUk+Frj9WSx3M9vvZY37nm+ortrGkLiASvyNVHGf/deFsv/mcckg7rHxCWFY8Sh+9iItz7OySHGlAZfzAN/X0B5Y502m7L/qIQ4e6UkT5F74sXoq0s1GmmdTwXx3tuZCCiugeE7a8iFIqzibkHouoKMNE6ETrLTOt3q6tQfecLCismJzmJl4qrp1NuR/lZKJ2G/knlGkfDgQm4MyAsKx5FDl1HxPgfZGBHGYrEf2EunduZmobvZFd4HDlr1QiTlqhwOZapK1Aih0432/Qfq0uAzv0WcGVA2P4qgjX4HSL5H78bQL5wCTA5Z3YaU78brqrCWU23ZV8vRGeHszpUFSYBFjmkM92Cr7+G6VAUqMW1AeHfQ4J9LxEdo4AbWtyFwAtDL75j3gUX/B1IOxfIFYoXM/M8GEGgAoF/mob+5grWYQkEXBVwdUB4eUgo38ADPwoLbHY2PvLVtlmHK0ywy9Zz/Wv2I2dkGTN/DkYQ2LUA/9bR5CtdM/UHIAUBvwVcHxByBftSZrrC70aQL1wCwnRlJqV/NVxVhaOavGX/kIjwYbNwHEeYq/iLVqIvd8zS7wtzkagtvgKuDwgLl676QCKh4ZPs8b1mKuqMme/pTDV/sKLFCi3KF+yHiekwhVpGq7UL/NQ09I/Wvh07IVCfgOsDQrmcXGFwKrNcQ0Tj6ysPuyMukDMNvSviPbhWfk//6jc54jxMRI2uBUWguAr83TT0d8S1OfQVDQFPBoTtQ0K//X0W+lQ0GFClFwJM/KPhoW3T517Qus6L+FGKuahgv1fj8leB6V1Rqhu1BiLwPdPQ8Y2wQOiR9LUCng0I+WWDJ5Ej5e/s4n9LKl9zQj/f+PT4j2ez6j7MadHA4Fu1ktxERO9R+VJA76MLDNPw1q0y/PHL0+m7Rl+NFRDwVsCzAaFcdt6yNxMR7i3v7RmGPrq2dfy4jo5JW0JfqEcF9vSv/pAjzm88Co+wMRIQkvxuieGLWltbh2PUFlqJqICnA8K/h4TBh4kEH8qK6AXiVtlSGjk8M2v6I27Fi0qc/ID9DirRX6NSL+oMToCJ13QazVOCqwCZIfB6Ac8HhG7LPl6I/hfwygv82jT0E1RSyFmDZxDJzYy32VQ69pp6dcihLmOq538f11QcNikr4PkF2bNy5V6locRSxi1llb3IXm78OY1oVoeh36ACRPs1lxxxUMOhX0tS8lgV+kWP9QkMU2nShca0G+uLgt0QcFfA8wGhXK7Ze9UZeyf2Xd7ADQe5Wz6iRUmAia/uNJovilLNtdaa6y+2s2x/wikexFQroir7hL5gpvWbVWkXfUZHwJcBocyRt4oDRDzdrUdMR4cYlb5egFvN1JQVxBzbW3Ln+gYnsSbfwMlDYFcCQuKUyJk315h2GaQgEEYB3waEfw8J9hARNYQRAjX5JzAxMdQY109pz+qdNebQ5Pu3+qeJTFEVcKi07qXS81PmzcrcGdUeUHe8BXwdEHLLimeyw9+ONym6G02Ahb7TmdY/O9q6KP4+Vyh+g5knRbF21OyzgMYnmzObf+5zVqSDQMUCvg4I5ap6CvZpDtMPKq4QC2Mp8JcNf92tOGfRhjg1l++3ryOhs/E2WpxO1ZtehBP7Z1KT13sTHVEh4I6A7wPC4oL93hLTrUR0oDstIEoUBYToD8lE8lOzW897Mor1v7bmnp6esU7TnpcTUSbqvaB+7wUcodO70nr5iZ74gUCoBXwfEMoaeCR0qK8J34pjpis7Y/BI6Jy1+hgm517f4JAoygJ3U4kmm7P0v0W5CdSuhkAgA8I1y+wjhh36JhEdowYzutyRgBA9QKSdlTGm/DHKQjnLvpOJTo5yD6jdF4H7E5L47Oz0ZNxZ0xduJKlXIJABoVx0T8/asU7Tpk14v7beI4z2fmH5aCbV8tOodtFt2Y8J0SFRrR91+yeg7TN+XMckdZ9J4p80MrklENiAUG6g2xr8jZB8yK1mECeaAiUuHTcnNe3/olb9JUtzV+ye2HsuE+Oru1E7PP/r/a1p6B/wPy0yQqB2gUAHhHLZecuO7Q1zaj8W9Xaahh74tViNenf/6veJ46wmpndXsw9r1RNgops2rB9/tsqPPFfv1OPRceB/Kef7B7tIZGE8ONFFzQIii8x0y5ya9/u4ccHA6kOSJaf8Vd2jfEyLVNEUuFl4ayqTSuErjdE8P6WrDnxAyGaz2oT9Dr2SiJS4R7/SV9uum7/TNPRTo+CT77e3kFBTFGpFjQELMHebqWYz4CqQHgI1CQQ+IPz7bYbV04ikm0h2q6kLbIqJgKzcOLKxM9ve/lJYG8pbg8cSyT1hrQ91hUpgtWnozaGqCMVAoAqBUAwI5XoXWCvuSFLylCpqx9I4Cjh8stkWztvP/vtW4XQdEU+IIz16ck9gG239wcVG6lPuRUQkCPgvEJoBYd7SpR9oSky4238CZAyZwN2moYfumy05a+UZTImVRHRAyLxQTggF1tP6dywy5vw9hKWhJAhULBCaAaFccda2myZsoS0VV4+FcRXYahr62DA1lysUW5l5WZhqQi3hFGDmszpTzTeFszpUBYHKBcI1IGz/wOJb7iWSoytvAStjKOAIl96TSU37Uxh6yxeKXyHmG8JQC2oIr4CQkLBzTVdq2gXhrRKVQaBygVANCOWyryoUTk3wmB8mKdFYeRtYGTeBEpXu38IvnZdNdQR6A6XZPdkPvanp0N/EzRf9eCDA8tQWHmq+dOZMPIjJA16E9F8gdANCdvHiPcaNmXCNRsnJ/nMgY1gEhMQpSeniuenpC4Ks6eq+Fb9q0JInBFkDckdDQGPtuI7UlEAH2mhIocqoCIRuQHgFLm/ZvySiD0cFEnW6L8DMQo7zkc50y6/cjz56xJxVvJaJzx19JVYoL5AY2tdsbX1GeQcAxEogzANCHxGlY6WNZqoWYOK2TqO5UPXGOjZs/7DsVrmchLvqCIOtiggMOcOTL0rPuI6YcNt4Rc5clTZDOyCUD2CRtTKnUQJ3IVPlatxJn34/p+Fqq3h4guQhjTTF5dH+aAJM/H+aaM14hPNoUvh9FAVCPSDk1uTG88Z9NkYRFjW7KcC3m0bzx92MuKtYecv+NREd51c+5ImmABM9WhqmT3Sdrz8QzQ5QNQR2LRDqAWH7qwgF+zSNqfxgHPwoLMBEP+w09NO9JBAR7u4ffISIDvUyD2LHQ+Cp0pM35GZddE48ukEXEHijQOgHhHzB/iAx3Yi/tJW/fO8mp/RFs23aY15J5C17kIimeBUfceMjwES/6DT0k+LTETqBQAQHhHLJ86y+rzZK06UaJ5I4RHUFhGhuxtA9eTR4d//q94k45QHhGHWF0XlFAiJrZWKyJTN58qaK1mMRBCIqEPpXEMquF/fPe9PuctBtGvG7IuqMsl0QKL/nq0niU25/IGxRwT5AY/o5ER3hQpkIEWMBZvqOaGOmma1n4yuNMT5ntPZvgUgMCK8cVt6y8TUiXLnk9rcasn1L1k/Qdt8XtBAYRUCIqd9M6fj6NS4VJQQiNiAM/phIPqbEyaDJnQoIycczRsvtbhD1WPaJDm1/9QA/ENi1gFDRTOtTwQQBVQQiNSAMDAw0bCg1rsAHyVS5PHfSp9AmM61PqFehu3/wCyJSfoTzHvXGwv54CwjJ1Rmj5aJ4d4nuIPB6gUgNCOXSu/uLnxbh7+EglRZwhGhJxtA7a1XoKdinlYjWMBPeWqgVUaF9Gmtv7khN+adCLaNVCETrMwivnFfOWrWISSvfYTFyAw6uORcFxDHN9NTuaiOW73fQs2xQF6FV1e7FetUEeERYzsuk9K+r1jn6hUAk/4Gd1Xvp+w5OHHqTxonDcITqCgjRqlJiqHNua+uL1SgsKqyarLG2upo9WKuegBBtZqGLzLR+jXrdo2MIRPh/4PhLHpdvWcBx5NiutpbfVaqRLxS7iNmTeylUWgPWRUbgYdPQ3xqZalEoBFwWiOQrCK8Y4GuPLl8N0Qz3F9PQK74/Rt6y/05Eb49mq6jaTwGtRMd0zNLv8zMnckEgTAKRHhAWDAzsnig1vMD4KEKYrqkgannRNPRdfhMhe8cdyfF/fWQ5E+tBFIic0REQoq2ayNs70y2PR6dqVAoB9wUiPSBkBwbGNYzIbWN4zEfcp0HEqAgIyWYWPsVM63fvqObe3t4x2xIT5jEzHh0elUMNsE5HSO9K6+XbbuMHAkoLRHpAKJ/cooHBt2qOFEkID05R+lKmb5uG/rkdESxZsmL/kcbkv9TmQfcVCtxNmjSbM1v+UuF6LINAbAUiPyCUTybfby8hofNje0porBKBF4XIyBj6Df+5OG8N3kckR1cSBGuUFnhyJKEdP7d1yjqlFdA8BF4WiMWAsH1IsOx78SQ+XNdC2nsyxpQ/liXKb0FNKDWWv+FwJGQgMJqA28/4GC0ffg+BsAvEZkBYUFjek+SG2WEHR30eC4h0mOmWxf8eGgf7iAQP1vGYPCbhbzMN/bSY9II2IOCKQGwGhLJGt2XPEaIFrsggSGQFyv8TXFSw36sRrSGmd0e2ERTuiwAT3dAw0pBqbz/3JV8SIgkEIiIQqwFhft/qvRs1B89pj8jF512Z/Cdm2k1EDvEuByLHQ4BvGaaGyRca5zwfj37QBQTcE4jVgFBmyS0rnskO3UjEDe4xIRIEIBBDAUdIBjJGixHD3tASBOoWiN2A0DmQ3WefkYOWN3DDDr/yVrcYAkAAArEQYKaBzpQ+MxbNoAkIeCAQuwGhbNRj2ScK8TeE5EAPzBASAhCIuIAIXZ5J69mIt4HyIeCpQCwHhLJY3rL/TERHeaqH4BCAQCQF2NGO7Gybcn8ki0fREPBJILYDwstDwlNEtJ9PlkgDAQiEXKD8nAVmmmGm9GtDXirKg0DgArEeEHCL3cCvLxQAgTAJbCWiLtPQl4apKNQCgbAKxHpA6OlZO1bGbrpGhKaH9QBQFwQg4I/AttK2dRfPmnmoP9mQBQLRF4j1gFA+nly//WUW+lr0jwodQAAC9Qhs3PbCYdnZsx+tJwb2QkAlgdgPCNuHBMtewCSdRJxU6XDRKwQgQERCLzgJ+lDXTP0BeEAAApULKDEglDnylv13Inp75TRYCQEIRF2gJKWNwzQ885J06vqo94L6IeC3gDIDQnf/4BdE5Jt+AyMfBCAQnECJSnc8I/84O5fO/iu4KpAZAtEUUGZAePlVBInmMaFqCECgegF+Xlh7RyY1eX31e7EDAhBQakBYVLAP0JjvI5J9cPQQgEC8BcpP9Yx3h+gOAt4KKPcHKGcVz2Vi3CTF2+sK0SEQsIB81zRazgy4CKSHQKQFlBsQFlvFw0vCNjGdFOmTQ/EQgMCOBZiuH5bGWXiEMy4QCNQnoNyAUOa6olAojOWxM5lYq48PuyEAgTAJCNGPnDHOWXOmTt0QprpQCwSiKKDkgFA+qLxl30FEp0Tx0FAzBCCwIwHZ+Gjp4WP6Zs17BD4QgED9AsoOCC8PCfhWQ/3XECJAICwCS01Dbw9LMagDAlEXUHtAKNjnE9OSqB8i6oeA6gIifEkm3XyV6g7oHwJuCig9IKxduzbx2DObZjHRYjdREQsCEPBXbGd/SQAAFEFJREFUwHHk2K62lt/5mxXZIBBvAaUHhPLR5vpXf47FsYlo93gfNbqDQPwEmHijQ9SeMZrLf4bxAwEIuCig/IBQtsz32zYJNbvoilAQgIDHAiIywgk+35ypWx6nQngIKCmAAaH8KkJf8TjW6BYixh0WlfxjgKYjKSC0yUzrEyJZO4qGQAQEMCC8fEj5gRv2odK2pyNwZigRAhAoP8WZE/vjOQu4FCDgnQAGhNfY5q3iA0T8Nu+4ERkCEHBBYL1Woo91zNLvcyEWQkAAAjsRwIDwGpjtt2EmfghXCwQgEE4BIac0TMNdFxkze8JZIaqCQHwEMCC85ixza9aMp40jOSZOxeeI0QkE4iPgiPO7l5KbJs1rbccgH59jRSchFcCA8B8HM+eaBWfuntxjVSOP2TukZ4ayIKCkgBANbRrZsG+2vf0lJQHQNAR8FsCAsAPwbmtwvpCYRNTg83kgHQQgsAOBEpW2zjGmjQUOBCDgnwAGhJ1Y5y37H0T0Jv+OApkgAIGdCWyQF3svT19wPoQgAAH/BDAg7GxA6C9+koR/6N9RIBMEIPCfAiM0UkpK8uvamFJ7x7Rpz0EIAhDwTwADwi6sLy50/3FP3uvd/h0HMkEAAq8VEKI7x4xsOK29vX0bZCAAAX8FMCDswnvJwOpDSiXnF0J0iL/HgmwQgAARlUxDT0ICAhAIRgADwijuuUKxlZmXBXM8yAoBdQWEOJ8xmjPqCqBzCAQrgAFhFP9838pDRUtcy0QnBntUyA4BhQSELjTT+gKFOkarEAidAAaECo4ka9tNE7bQY0S0XwXLsQQCEKhDgJmvOnjvcZdNmjSpVEcYbIUABOoUwIBQIWDessvfaPhkhcuxDAIQqE1gA5HWYRpTVta2HbsgAAG3BDAgVCGZt2ypYjmWQgACVQowy8zOVMtAlduwHAIQ8EAAA0IVqPjAYhVYWAqBKgVelOfyV6Y78aHEKt2wHAJeCWBAqEJWRLjbGmwnpiVVbMNSCECgAoGN6x9ryGazIxUsxRIIQMAHAQwIVSIv6h/8giZSfgkUD3Oq0g7LIbBDAeZ/kNBnTaP5txCCAATCI4ABoYazyPcP3kgiZ9WwFVsgAIHXCzwupLVkjCm3AwYCEAiXAAaEGs4jZ60+hsn5BRHtVsN2bIEABF4V4LtMoxn3GMEVAYEQCmBAqPFQstlscsJ+hw7XuB3bIKC8wL9G/vn9Dx3w9jNxvwPlLwUAhFQAA0IdB5O3ir8j4vfVEQJbIaCkgEMlZ/dEqam1tRVDtpJXAJqOggAGhDpO6eW3Gu6tIwS2QkBJga20dfXI+qdastmsoyQAmoZABAQwINRxSNlCYcIEHle+X3y6jjDYCgGlBJjoBm4szeqYNu05pRpHsxCImAAGBBcOLFcofpuZz3QhFEJAIO4CvzYN/YS4N4n+IBAHAQwILpxi3hq8kojmEgmeXe+CJ0LEWIDJMlM6XnGL8RGjtfgIYEBw6SyvsPr+PI7GH+VSOISBQAwFeJ5pNF8aw8bQEgRiKYABwaVjnbN0wbv3Tez/R5fCIQwE4iUgMmfj0+vy+FBivI4V3cRbAAOCi+e7qK/4fk1j3C7WRVOEioWAEDlnmMbUH8SiGzQBAUUEMCC4eNCLltlHsEPfZ6IjXAyLUBCIssBLRJIxjZblUW4CtUNARQEMCC6feq6veBxptJqJj3Q5NMJBIHIC7NDUzja9GLnCUTAEIEAYEDy4CPLW4PeI5NMehEZICERG4EV6/q9XGh344G5kTgyFQuD1AhgQPLoi8lZxAxFP8Cg8wkIg5AIyUtoge82ZM3VDyAtFeRCAwE4EMCB4dGl09Vy9aL+mAzIehUdYCIRYQB5j4i93GvqvQ1wkSoMABEYRwIDg4SWSt+w+3IbZQ2CEDqPAk+zweZ1tzT8JY3GoCQIQqFwAA0LlVlWv7Olf/SFHnN9UvREbIBBRgSFn6LcXtbV+IKLlo2wIQOA1AhgQPL4ccpY9h4nKD3TCDwTiLSC0xUzr4+LdJLqDgDoCGBA8Put8oXiWMFtMtK/HqRAeAkEK/HasbD4lnU5vDLII5IYABNwTwIDgnuVOI3X3D35BhL6Ohzn5gI0UwQgIfcFM6zcHkxxZIQABLwQwIHihuoOYecveSkRjfEqHNBDwU+AbibE0c7auv+BnUuSCAAS8FcCA4K3v66LnLVt8TIdUEPBeQOQ3ZrrleO8TIQMEIOC3AAYEH8W7LfvnQnSijymRCgKeCpiGjr9DPBVGcAgEJ4A/3D7aLx649sBSaWQFEZ3hY1qkgoAnAsx8SWeq+SpPgiMoBCAQuAAGBJ+PIFcoXszM83xOi3QQcFVAiLo2rX9scTabHXE1MIJBAAKhEcCAEMBR5K3BHxPJxwJIjZQQqFuAifs7jWaj7kAIAAEIhFoAA0IAx9Pdb18mQpcR4WmaAfAjZR0CJRn53wQ3DJpG8/I6wmArBCAQAQEMCAEdUrc1mBaS8rMa8AOByAg8Wnro8L5Z8x6JTMEoFAIQqFkAA0LNdPVvxNce6zdEBP8EhkpbzrxolvFd/zIiEwQgEKQABoQA9XN9q05gTfsxEY0PsAykhkAFAvxScmj47RdcMP2pChZjCQQgEAMBDAgBH2KuYF/GTNmAy0B6COxK4GESZ4qZnnoXmCAAAXUEMCAEfNYLl636QMLRrieitwdcCtJD4A0CQvT8Nt46/ZJU6ibwQAACaglgQAjBeect+w4iOiUEpaAECLxegOmh+7X/fefy1uXDoIEABNQSwIAQkvPOW/YTRHRgSMpBGRAoC6w3DX1/UEAAAmoKYEAIybmLCHf3DzohKQdlKC4wQiMPJnjkvzKp1HrFKdA+BJQVwIAQoqPPWXY3E3WEqCSUoqjANtrSNbx+PW6lrOj5o20IlAUwIIToOlhYWHUqE/1UYy1EVaEU1QSY6KYNIxtasu3tL6nWO/qFAAT+vwAGhJBdDd2Foin/fpjTmJCVhnIUEHDEua8rPfUYBVpFixCAwCgCGBBCeInkrcFfEMlHQlgaSoq5wOPOI5+4pu2K8s278AMBCCgugAEhhBdAzho8g0luCWFpKCnGAuVHOGcMPRfjFtEaBCBQhQAGhCqw/FyK5zT4qY1c5eFg0/q3LM5mTx2BBgQgAIGyAAaEkF4H2TvuSE74y6P/ICZ8Dz2kZxSHsoTEYeJ+09Db4tAPeoAABNwTwIDgnqXrkRYVVn1CY+021wMjIAReEWB56uEt93/E6ljwIFAgAAEIvFYAA0KIr4eFS1cdlEjwABF/OsRlorQICzDzWZ2pZjxnIcJniNIh4JUABgSvZF2K220NzheSC10KhzAQeFXAITqpy9B/ARIIQAACOxLAgBCB6yLfP3gjiZwVgVJRYnQE1pNT+pDZNu2x6JSMSiEAAT8FMCD4qV1HLnyroQ48bP1PgYc0Ir0Drx7gyoAABHYhgAEhIpdHd7/dLEJ2RMpFmWEVEHrB0fjTXanmX4a1RNQFAQiEQwADQjjOYdQqenrWjnWaNm0edSEWQGAXAk87T359YdtFXwESBCAAgdEEMCCMJhSi3+eXDZ5EjnyLiPYKUVkoJToCj5iGfnh0ykWlEIBAkAIYEILUryF33rIXEVGmhq3YorCAEP1ChCZ1pfV/KcyA1iEAgSoEMCBUgRWGpd3LVr1HHO1mIsL/BMNwIBGowSGntE2GUpemUysiUC5KhAAEQiKAASEkB1FNGZZ1/Z6baei5avZgrZoCQvTsJt561ItbtmxY3NGxRU0FdA0BCNQigAGhFrUQ7Om2Bv8iJO8MQSkoIdQCcpdptJwY6hJRHAQgEEoBDAihPJbRi1q4atXExDbtpdFXYoXKAqah48+4yhcAeodAHQL4y6MOvCC3ZrN3JCfs/+iVJDQ3yDqQO7wCTDS709CXhLdCVAYBCIRZAANCmE9nlNoGBgYaXiqNuYZJUhFuA6V7ICBEcw/dZ3x+0qRJJQ/CIyQEIKCAAAaEiB9yzrIzTHw5kYyNeCso3x0BGZGRa+emp09xJxyiQAACqgpgQIjByc8rFG5p4nFnxKAVtFCngIhsepLWfaInnf1VnaGwHQIQUFwAA0IMLoDZS69495sSB/8xBq2ghToFWKMzOmfqt9YZBtshAAEIEAaEmFwE+b6Vh5KWeDQm7aCNWgTEOdFMT72rlq3YAwEIQOA/BTAgxOSayPb27jYhOfH3uMNiTA602jaY/8EJ/mjnjCn3V7sV6yEAAQjsSAADQoyui3zB/jwx3RSjltBKZQIPkcMtZlvzzytbjlUQgAAERhfAgDC6UWRWLCrYB2gsK4j405EpGoXWK7CFhE420/rd9QbCfghAAAKvFcCAELPrIbt2beOEZzaV32o4KmatoZ0dCGzlrc9dkkrtDRwIQAACbgtgQHBbNCTx8pYtISkFZXgn8GfT0I/2LjwiQwACKgtgQIjp6S8orCglOanFtD20RXRnaWTkvDnt0/8BDAhAAAJeCGBA8EI1BDGvtga+2ECNa0NQCkpwWcCR0l+38qbzvmqc/1uXQyMcBCAAgVcFMCDE+GLIFwbPIZbrYtyioq3JD0yjpXznTLyNpOgVgLYh4IcABgQ/lAPK0d238qPC2vXEvH9AJSCt+wJ3moZ+qvthERECEIDA6wUwIMT8iui2Bi3B0x5jccpDsvX3F6VT749FM2gCAhAIvQAGhNAfUX0FLiyseGeCk7cR0cH1RcLuoAW2yOYvXJpO3xx0HcgPAQioIYABQYFzXrt2bWLdM5tGFGg1ti2KyCUZQ59PzPjcQWxPGY1BIFwCGBDCdR6eVZO37F8T0XGeJUBgzwRKUvrhnPS00z1LgMAQgAAEdiCAAUGRy2LhwlUTtQm8mpk/p0jLcWmztEk2nHdZuv1rcWkIfUAAAtEQwIAQjXNypcqcZZ/NRNe7EgxBfBHQKHFKhzH5Z74kQxIIQAACrxHAgKDY5dDdby8XoemKtR3NdsU50UxPvSuaxaNqCEAg6gIYEKJ+glXWn+8f7CSRK4lobJVbsdwnAUccx6GRi+emWxf4lBJpIAABCLxBAAOCghdFrlBsY+alCrYeiZZLUrr/pW3PnnNVx5x7IlEwioQABGIpgAEhlsc6elN42uPoRkGsYGZxhN+bMab8MYj8yAkBCEDgFQEMCIpeC92F4sHCvE7R9kPbtmno+DMZ2tNBYRBQSwB/Gal13q9229tb3HcoyXcQ0bsUJQhj2781Df0DYSwMNUEAAuoJYEBQ78xf7bhnqf3ukkaDzIT7+wd/HfyUnFKL2TbtseBLQQUQgAAEiDAgKH4V5K3BIpHoijME2r5DpcdekGf1+ek55Vd08AMBCEAgFAIYEEJxDMEWkbfsR4joLcFWoXB2pp+YKf1jCgugdQhAIIQCGBBCeCh+l5S37EEimuJ3XuTbLnCbaeinwQICEIBA2AQwIITtRAKqp9uyFwjRnIDSK5nWIYfess/E5KRJk0pKAqBpCEAg1AIYEEJ9PP4Vl1u64jBOJB/2LyMyOeS0dRlTC5CAAAQgEEYBDAhhPJWAauq2Vp8rVLKJOBlQCWqkFXFY4ys6U/rlajSMLiEAgSgKYECI4ql5WPOCwvLlSW6YRviGi2fKQ7TtlouMmZ/xLAECQwACEHBBAAOCC4hxCnFxX/6kPbS9vsXEe8WprzD18qTzz5O72y75eZhqQi0QgAAE/lMAAwKuiTcIlG+g5CQIzwLw4NpgohM6Df3XHoRGSAhAAAKuCmBAcJUzPsEWW8XDR4j/zERN8ekq0E62CcmnM0bL7YFWgeQQgAAEKhTAgFAhlIrLFhVWfULTEqtI5M0q9u9ez/w8C13QmW5e415MRIIABCDgrQAGBG99Ix/9ikKhfyyPncHEWuSbCagBYfpKJqV/PaD0SAsBCECgJgEMCDWxqbOpa+nCg/bW9vp9gpP7qdO1e50+V3r6W/NndX3evYiIBAEIQMAfAQwI/jhHPsvFS3M/2zOxz7FEND7yzfjQgBBt3VB6Iac9++IV2Wx2xIeUSAEBCEDAVQEMCK5yxjtYvr/4SSJtJT6TMMo5C71ALBeYRsvqeF8R6A4CEIizAAaEOJ+uB73l+9d8kmTkm0Q8wYPwsQjJIl/uTLd8IxbNoAkIQEBZAQwIyh597Y0vsa49coRG/lZ7hPjuFEeOz7S1/Ca+HaIzCEBAFQEMCKqctMt95gfsd1CJfkZEuxPRGJfDRywcjxDJc0ROs2lM/UHEike5EIAABHYogAEBF0ZdAvn+wU4imU9CjXUFivBmIc5njOZMhFtA6RCAAATeIIABARdF3QLdfXbLZm3zFWNp3JvqDhahAFtpy18bpXGgKz3tmgiVjVIhAAEIVCSAAaEiJiwaTeCSpbnD9tD2mUFMc0dbG4ffM9ENz8lzcxue3vDPbDbrxKEn9AABCEDgtQIYEHA9uCrQ1X/1pfvS/jNI6E1MHK/ra/vXF2nLIw0PTClMn/9jV+EQDAIQgEDIBOL1F3jIcFUu54pCwW7ipneR0LEaa1G/TfMGJvqe4zh9mbap/6vyuaJ3CEBAHQEMCOqcte+dXtibP2o3bbfjt/EWYwLvVr4LY+R+hKiLHOexTNvUtZErHgVDAAIQqEMAA0IdeNhamUCmkD1gfzrkI8R8Y2U7gl81zMNbR7Qhs/TkMwO4VXLw54EKIAAB/wUwIPhvrnzGfMF+mJiSRLTby/dRCIPJJiJ6rlyIaeiHhKEg1AABCEAgSAEMCEHqK54711c8U9O07U86dEgOYKJP+EzyKyZ+cHt+kbsyaX2Fz/mRDgIQgEBoBTAghPZo1CpsUcE+gFlOL3e9TYasJh7T5IWAQ44w8dRy7EaN7zp/pv6AF3kQEwIQgEDUBTAgRP0EY1j/ZQNLDmlydn/1mw8JjRMbR15YsRvvfmo17Y7QSElITiNu2P4qwb9/ttKFqdSj1cTBWghAAAIqCvw/YxlN56PkYuMAAAAASUVORK5CYII=;" vertex="1" parent="1516">
                    <mxGeometry x="3.177600000000002" y="18" width="6.105969230769232" height="5.787507692307694" as="geometry"/>
                </mxCell>
                <mxCell id="1530" value="" style="group" vertex="1" connectable="0" parent="1531">
                    <mxGeometry x="49.38461538461539" y="8" width="21.230769230769234" height="30" as="geometry"/>
                </mxCell>
                <mxCell id="1515" value="" style="triangle;whiteSpace=wrap;html=1;strokeColor=#007FFF;strokeWidth=1;fillColor=none;fontFamily=varela round;fontSize=18;fontColor=#E6E6E6;" vertex="1" parent="1530">
                    <mxGeometry width="21.230769230769234" height="30" as="geometry"/>
                </mxCell>
                <mxCell id="1526" value="" style="group" vertex="1" connectable="0" parent="1530">
                    <mxGeometry x="3.692307692307693" y="11.818181818181818" width="7.384615384615386" height="5.454545454545454" as="geometry"/>
                </mxCell>
                <mxCell id="1527" value="" style="endArrow=none;html=1;strokeColor=#CCCCCC;strokeWidth=2;fontFamily=varela round;fontSize=18;fontColor=#E6E6E6;" edge="1" parent="1526">
                    <mxGeometry width="50" height="50" relative="1" as="geometry">
                        <mxPoint as="sourcePoint"/>
                        <mxPoint x="7.384615384615386" as="targetPoint"/>
                    </mxGeometry>
                </mxCell>
                <mxCell id="1528" value="" style="endArrow=none;html=1;strokeColor=#CCCCCC;strokeWidth=2;fontFamily=varela round;fontSize=18;fontColor=#E6E6E6;" edge="1" parent="1526">
                    <mxGeometry width="50" height="50" relative="1" as="geometry">
                        <mxPoint y="2.727272727272727" as="sourcePoint"/>
                        <mxPoint x="7.384615384615386" y="2.727272727272727" as="targetPoint"/>
                    </mxGeometry>
                </mxCell>
                <mxCell id="1529" value="" style="endArrow=none;html=1;strokeColor=#CCCCCC;strokeWidth=2;fontFamily=varela round;fontSize=18;fontColor=#E6E6E6;" edge="1" parent="1526">
                    <mxGeometry width="50" height="50" relative="1" as="geometry">
                        <mxPoint y="5.454545454545454" as="sourcePoint"/>
                        <mxPoint x="7.384615384615386" y="5.454545454545454" as="targetPoint"/>
                    </mxGeometry>
                </mxCell>
                <mxCell id="1534" value="" style="group" vertex="1" connectable="0" parent="1">
                    <mxGeometry x="200" y="170" width="120" height="100" as="geometry"/>
                </mxCell>
                <mxCell id="1497" value="" style="rounded=1;whiteSpace=wrap;html=1;arcSize=7;fillColor=#008a00;labelPosition=center;verticalLabelPosition=top;align=center;verticalAlign=bottom;fontColor=#ffffff;strokeColor=#005700;opacity=50;" vertex="1" parent="1534">
                    <mxGeometry y="10" width="120" height="90" as="geometry"/>
                </mxCell>
                <mxCell id="1496" value="Policies" style="shape=image;verticalLabelPosition=bottom;labelBackgroundColor=none;verticalAlign=top;aspect=fixed;imageAspect=0;image=data:image/png,iVBORw0KGgoAAAANSUhEUgAAADQAAAA2CAYAAACIsLrgAAAFG0lEQVRoBd2ayW7dNhSGHQ/xmHlo0WUfops+Rx+gWRXoqshsO3aepy/RRbsp4G0XRVt0UaBxnHl2Eitf8UmHF5Tule1cu5biA/xX1KV0xJ+kfpKHmgC+Bv6isg9AAewA7wPvgLeBbeBN4DXwKvASeBF4DjwDngaeAI8Dj4CHgQfAVuA+sBm4B2xYrolxLG4OPr06/DkOnwnA2tE+A04Ak8AUMB2YAU4GZoG5wDywEFgElgKngNPAmcBZ4FzgPHAhcBG4FLgcz7cMX0R5PhyU0OWxHBzyTVGhcirGch19WAeXxnJwyDdF7zgQIV9O7eIhl20sdxmhnXEd9I2Q7672flxCyqh2YSwHh3xTCJHlGUmIHa4A37Y+FnBs0FoJAb/ENXsdfm590D4zAFVVezfqFgruUrA+Kq/8LyN0vu2iIybkEKG9bZanHFb2QchRXDvXdNDFeYx3lufYEHLw1rabFZq10Fozb3AOONfSzg7+7DARsxDLM0zoLpPxDu1KyEmkdqZDHoNHZ4TeDP6MBIkQ3BnKS+oXM+I+EXKOqL0eKrTzzEoUhgklsYipvg5ONx2k849Quaooe/+2yjtwYEKuX7S+EHIGr71KFZqO/MhU2UKwmv7zmInFuieJ0Kn8oq7SgEsR7WWzDOU8r+pabYTWJORKU1tqOuji/DgScqGovWhWKD8xHV1uJc+rqZ9NGw4W84u6SgOueLVhQq6i7XJQJ5TUTzmPIIcOFroikT83I/Q8/990OROv3qHRhIp9Ejpi2TYeoT0bIrTBTLTQcp5XUz8HsHAwn1+Upz81QsbZtFZCObn/Ox2RIsvztPmscq1Udbl6CxmlSnIeQUMdzDUddHHuJLmsXnjSfD6/cTK63O08r6Z+zmrDwWx+UVfp40jIoKT2uFmp5eKv6lr1FkpyXrCiFBq31k42HXRxDhhd1YYJ/cFsvCt1Qkn9gpDBeG2mjcARq1wi9KhZHhIhuJXnkQjBsi3UN0LGvrWHeaFNw6CF6oSMFCX1iy0THUw3HXRxHoH8AxFyL0jrCyF3JbQHzQrlb+ZCtm/meTU5j80tHUzlF3WVju0Vy7PVLEMZb6i6Vp2Q2z1J/WLHTgeTTQddnB9HQm5+afebFco/zEeXu5Hn1dQPcF9VO5Ff1FU6dvIszzAhAyh2LagTSuqnnFdcoCsCzedmhDZH5FWEihZCRUYoHNncwr1P1UakPVEHPKclTh6Fe6iuXYSrTJfOBjiEkRvDUcI9WcO7wkC8uwvCfSD3coX7umUPAT6PSr43ROhfFqKFrud5NfUDfk+t1LPjRl5o0+yT0FfAr/GNgDviwu8H3NkTboi5hyTcqTAWLgwh+z2CMBRm9Mj4hPD7BReOwvWWM3rhvNGZifA7CMdA4bcR6V22Xv1uYug7hbLlK3mut5C9YIScNyukd+dsshhd7lpeuDb1y6/pZfr4EVJwqq5Vb6Ek5w3162Wr5IVii6WRhJJY7EWoDA/pJMmxfVhJ1oGwZhy9hS+mk0ehRLt2EUq1sQChXLt2SZ/dGAlN0m0gvpLvyTISWn2m46c6gwG/HBqqgfVqjWgiBDWxyK8p08D3USPuPPcH8F1e2Db1y69JhL4BrlJwrQTl8TpQoeCG05ASBTchUHALAgW3IVCwDCxTsFKC8rhKwSrg8U4JyuMaBWI9g9OeH9jmy7yw+yaU39TndJv69bnMu5atfMdHqN+uN/U588CEeqd+Sc6hpn77boRPRf0+hlBv1e8/cbdyugfEJGcAAAAASUVORK5CYII=;fontColor=#CCCCCC;" vertex="1" parent="1534">
                    <mxGeometry x="33.998571428571424" y="23" width="52" height="54" as="geometry"/>
                </mxCell>
                <mxCell id="1541" value="" style="group" vertex="1" connectable="0" parent="1">
                    <mxGeometry x="210" y="354.91" width="20.349999999999994" height="80.17500000000001" as="geometry"/>
                </mxCell>
                <mxCell id="1505" value="Task" style="shape=image;verticalLabelPosition=middle;labelBackgroundColor=none;verticalAlign=middle;aspect=fixed;imageAspect=0;image=data:image/png,iVBORw0KGgoAAAANSUhEUgAAADkAAAA4CAYAAABHRFAgAAAI30lEQVRoBdWaeaxdRR3HS6FlbaFAQcBU9ghC2USKpWIhLCJQxAAlCGJJaQXKIksttPaJGkIUCQTQCBJlVYwrf2DUaAyiEGvQQmMMYhvZC2Vpleb13suHfOf85vZ3zp1z7rmvt+3rSW5m7sxvPTPz2+aMGDHMHpayFS+zDbA1L7A1sNkwE3HdxAEOpcVA7gdz+ANbrBvlYYQNzDQF59LiOlrMD//hwGEk5tBF4W3GmYLz4soBR5mS5wyd8gbGBPalyRmsZs8iaxocExRqcmacYznb0eIrYUWXslUcVwuMpsEUYJrOrp/baH0GORBYYKs1AMwA9jOBdwMus1Xb3wsJnB/GG5zIEkbzHFvS4BMQtnM8v7Mg/xI8jdI+TWa0BSoag9R/+EIZMQb5SFvBJtPtvGUCwjWOz7U8wuaeDoNMdPPzaKHzmuE2udC9nIt7VrRfSgI7tBWEqVIAGAVMosWXgsBaFTiRt9jBKxj7YRdIoagcfD5ueV5nDC3mGJ32Vo+4G6QN/q7F9SbE7p6pVo3VTIiGxs+l+sDOQI6G4GhyZqDf4OQU3gYZA44PQjQ5r98MzSrLOC3gTbbvN/3a9Gw1dZ4GeJcP1kasAUiTU+0FTqsBvn5BgKkmzLn94gRsYwHDQlayUy26/TI2KWYhJm1xCfCp5PwKxgInoTBOrgbmAReyhsPK4ldg2+BHYb7i3RTdjrH1qWQHMzfAIAcQjVO0oL6Fi6SQQ2l3gXPDDtG5L7ifNlA/OuHMwVmBIUwn+50N7FWHPvBl28qisRsDjAwrDwcDV4S5FhenrDCwv80rwJgLnBHGyPvbOnJUwgA3k35egu4ZBIRg4eAUk5B2RT/YYHISBo6mxey2stoFcBWwZQq+5zGdF+AF0/HnwMPAj4BXbCx5BnthBOxtClxehQfsCCEGziz5KsZXwdeeAyabMks9EnCDjd/vx4faD1sxW6GuBoYWl4aXAjvX4gfsWgUI3G7K3OzhdB5tfJVMvZ/zfWAcdDf/tLjcBB/n8VP9YKH1QlZ2UVL7GXjUBP0NcGyRIDASeNlgjkjM/9nmpifmxttZ/h/wDnB0ESb+ZxGj2v5wCaPjuG+BDwAnhLMYLXNJLBzwTMHHTEDfPAF8WkBmLO62yX97hrEfMoQMYIlZvc2BXYBvAv/3hE3RSRHXty557sh0lHkAs3JGp8UVOkaeRq5vSL82AV4LBzlzzm84oWQ1/XNVjoj9sYDa48lAeeV+CXwMeMiIaUWP8rRYhVb8BtuqIf/MzcsmZGf1WgUaUCNsBH5gDF/VakWCIbrIzPKLNr8SuBNImn6Ht33wdfAv91Z+ARzuYLTCssp63tbLcXOyrAtpdkZKZtmvNCX3iThdW+Cnxuz2FHAoO8Ange1S82VjJpAy+oNSMMABxnfQKynYspBNwb5t07kpmqVjEGLF92xbVVrWUiJDmADuMSW/Vxfdku+ssgD71sULcMDPjOGtPSEOEVjnCFgDNIH6206r3AjRzgBNZvbEHpgIaDVXpzLxnojVAAZus5f6UA3wHIjCRuBqO5e5IlgOMPUHeKSX1QzVb1Xc4GsWKE8ryxw8PwUCwLv2UpPnNcKzhknBgr7DjnFMrdyaKXm+H+/aB240JR+oAg4M4BmDLTZyFzdVGSlncOQ+KgPqdiSjWmyTzwafq3xT1lduZA1HVsmam7MDHQPsjkgnApsCUTG5FgUH8y2SedxWR/N6CRMiXrEF/mZEKqsGofLX5PTAI4tqpFymIHy8SLf0v53HGMksLgO0LSnZZDCU1owqwsoXAs+aAmrHFGH0P0QsGdA/QmmyS3qGqggNToZ2FbA0JGzzs2D6eieQycUFbSDXsaRUlrAFnOamOroQyhqLjeAtHQCZkmOAtyJTYAVwr0UwHS8v0gjJ+ip2if9LW+B+R1zd14G7qFh+4PuGc1cpYTdhu0MvRNY6XUCGfSAku3Hlo1iS5zBHrveu+SYRfAA4pVsmb5GLGOupbbKB3xlO1xsq4MNWzPqv4VzSu2YOw7acaI10w6VdyyIEv7wUKDEBLDSBv5qYTg7ZjhLaF5MAdQedBax1ba2IxIRNpldlfM04CfXbZTDFceA7xmt2ca6n/0ZETe7+r4yILKThyAfWvuYGbjW82sE0cJ/hzCqTp9Y40DBCcsYieqoyjSpkIFrLk6rg4pxVEJ4zPlPieKo1y61qm0/NklY+hZ8cAz7nnLHJEcy5LGiynuJ85FN1VpOsOCza/6GkHhouW+GvUQBrFZDcUic8TCpXHLSzptL83x2jm4pw+h/uINaWIeXPSrdtuAPJYlOR7aj1GD2dc7kYPUqaRVP1mtyFbEqWIY9Z1CGGy8u2LnCkBdaCe7IoFPAh4FvuOJT6VBmjoF5Wr62MX4esVAoReNoYl8aTpmgsLAtcJZF/ArFEojGlbF+Xfy3hs62LdiqdvtHRTqv7e7CMb5DFlf7vTQkXx6z2o22uipx/tO1UoJoYYVMthBhUeMtS834MWOQZ1OgrVEzvDCtJxopcKEF6ZmV9KxQrWlGmX+s8mUtSrKrn+DLaGjfYQ4C6v3ZBrIMuoC8p9DzdMbkeBsKtVsbvifVAvpOkVgB4PuPJ2Z0Q/R+xLS8jp6eW710nKYDzjJmcca14dp0YGjL6nid7nuoHvUoagO499Hy3CGgZiC5Xf2xfVNX+3MvSLbkKfbMzNkH7IOOr5lA/D/zJzdXpPu7xO/q2kjL7eq4UgIVl5ySSahkM3WvkCkueKNkNtO5Q/CPL+w3I7g8tEIlplRTKJcp9V9KUmumykzsK7mGZpU0K6eJzt1cs9sNXVxEii2R0rfD7tUPhXkT0o69VXainynzkNaTWLGxcUcm1NHyP6t4ycJwJnPRHrp76Q39Hacr/yr1Ikflj32LUXjRG37DBXyzAzm2hSMcF95+JY2pti0df+1E/F/u6LLILJr2E5NcdEXajtqF6nS3nT7wgED7X1MzzfnyT7AN7WAYRilS2gvpYQudPTzKT2eSULRgT063dVAbdm4yydlWgDEQ5oX7RYP12OCjxPrEYTJXFyCWYAAAAAElFTkSuQmCC;labelPosition=right;align=left;labelBorderColor=none;fontColor=#F0F0F0;spacingLeft=5;" vertex="1" parent="1541">
                    <mxGeometry width="20.35" height="20" as="geometry"/>
                </mxCell>
                <mxCell id="1535" value="Task" style="shape=image;verticalLabelPosition=middle;labelBackgroundColor=none;verticalAlign=middle;aspect=fixed;imageAspect=0;image=data:image/png,iVBORw0KGgoAAAANSUhEUgAAADkAAAA4CAYAAABHRFAgAAAI30lEQVRoBdWaeaxdRR3HS6FlbaFAQcBU9ghC2USKpWIhLCJQxAAlCGJJaQXKIksttPaJGkIUCQTQCBJlVYwrf2DUaAyiEGvQQmMMYhvZC2Vpleb13suHfOf85vZ3zp1z7rmvt+3rSW5m7sxvPTPz2+aMGDHMHpayFS+zDbA1L7A1sNkwE3HdxAEOpcVA7gdz+ANbrBvlYYQNzDQF59LiOlrMD//hwGEk5tBF4W3GmYLz4soBR5mS5wyd8gbGBPalyRmsZs8iaxocExRqcmacYznb0eIrYUWXslUcVwuMpsEUYJrOrp/baH0GORBYYKs1AMwA9jOBdwMus1Xb3wsJnB/GG5zIEkbzHFvS4BMQtnM8v7Mg/xI8jdI+TWa0BSoag9R/+EIZMQb5SFvBJtPtvGUCwjWOz7U8wuaeDoNMdPPzaKHzmuE2udC9nIt7VrRfSgI7tBWEqVIAGAVMosWXgsBaFTiRt9jBKxj7YRdIoagcfD5ueV5nDC3mGJ32Vo+4G6QN/q7F9SbE7p6pVo3VTIiGxs+l+sDOQI6G4GhyZqDf4OQU3gYZA44PQjQ5r98MzSrLOC3gTbbvN/3a9Gw1dZ4GeJcP1kasAUiTU+0FTqsBvn5BgKkmzLn94gRsYwHDQlayUy26/TI2KWYhJm1xCfCp5PwKxgInoTBOrgbmAReyhsPK4ldg2+BHYb7i3RTdjrH1qWQHMzfAIAcQjVO0oL6Fi6SQQ2l3gXPDDtG5L7ifNlA/OuHMwVmBIUwn+50N7FWHPvBl28qisRsDjAwrDwcDV4S5FhenrDCwv80rwJgLnBHGyPvbOnJUwgA3k35egu4ZBIRg4eAUk5B2RT/YYHISBo6mxey2stoFcBWwZQq+5zGdF+AF0/HnwMPAj4BXbCx5BnthBOxtClxehQfsCCEGziz5KsZXwdeeAyabMks9EnCDjd/vx4faD1sxW6GuBoYWl4aXAjvX4gfsWgUI3G7K3OzhdB5tfJVMvZ/zfWAcdDf/tLjcBB/n8VP9YKH1QlZ2UVL7GXjUBP0NcGyRIDASeNlgjkjM/9nmpifmxttZ/h/wDnB0ESb+ZxGj2v5wCaPjuG+BDwAnhLMYLXNJLBzwTMHHTEDfPAF8WkBmLO62yX97hrEfMoQMYIlZvc2BXYBvAv/3hE3RSRHXty557sh0lHkAs3JGp8UVOkaeRq5vSL82AV4LBzlzzm84oWQ1/XNVjoj9sYDa48lAeeV+CXwMeMiIaUWP8rRYhVb8BtuqIf/MzcsmZGf1WgUaUCNsBH5gDF/VakWCIbrIzPKLNr8SuBNImn6Ht33wdfAv91Z+ARzuYLTCssp63tbLcXOyrAtpdkZKZtmvNCX3iThdW+Cnxuz2FHAoO8Ange1S82VjJpAy+oNSMMABxnfQKynYspBNwb5t07kpmqVjEGLF92xbVVrWUiJDmADuMSW/Vxfdku+ssgD71sULcMDPjOGtPSEOEVjnCFgDNIH6206r3AjRzgBNZvbEHpgIaDVXpzLxnojVAAZus5f6UA3wHIjCRuBqO5e5IlgOMPUHeKSX1QzVb1Xc4GsWKE8ryxw8PwUCwLv2UpPnNcKzhknBgr7DjnFMrdyaKXm+H+/aB240JR+oAg4M4BmDLTZyFzdVGSlncOQ+KgPqdiSjWmyTzwafq3xT1lduZA1HVsmam7MDHQPsjkgnApsCUTG5FgUH8y2SedxWR/N6CRMiXrEF/mZEKqsGofLX5PTAI4tqpFymIHy8SLf0v53HGMksLgO0LSnZZDCU1owqwsoXAs+aAmrHFGH0P0QsGdA/QmmyS3qGqggNToZ2FbA0JGzzs2D6eieQycUFbSDXsaRUlrAFnOamOroQyhqLjeAtHQCZkmOAtyJTYAVwr0UwHS8v0gjJ+ip2if9LW+B+R1zd14G7qFh+4PuGc1cpYTdhu0MvRNY6XUCGfSAku3Hlo1iS5zBHrveu+SYRfAA4pVsmb5GLGOupbbKB3xlO1xsq4MNWzPqv4VzSu2YOw7acaI10w6VdyyIEv7wUKDEBLDSBv5qYTg7ZjhLaF5MAdQedBax1ba2IxIRNpldlfM04CfXbZTDFceA7xmt2ca6n/0ZETe7+r4yILKThyAfWvuYGbjW82sE0cJ/hzCqTp9Y40DBCcsYieqoyjSpkIFrLk6rg4pxVEJ4zPlPieKo1y61qm0/NklY+hZ8cAz7nnLHJEcy5LGiynuJ85FN1VpOsOCza/6GkHhouW+GvUQBrFZDcUic8TCpXHLSzptL83x2jm4pw+h/uINaWIeXPSrdtuAPJYlOR7aj1GD2dc7kYPUqaRVP1mtyFbEqWIY9Z1CGGy8u2LnCkBdaCe7IoFPAh4FvuOJT6VBmjoF5Wr62MX4esVAoReNoYl8aTpmgsLAtcJZF/ArFEojGlbF+Xfy3hs62LdiqdvtHRTqv7e7CMb5DFlf7vTQkXx6z2o22uipx/tO1UoJoYYVMthBhUeMtS834MWOQZ1OgrVEzvDCtJxopcKEF6ZmV9KxQrWlGmX+s8mUtSrKrn+DLaGjfYQ4C6v3ZBrIMuoC8p9DzdMbkeBsKtVsbvifVAvpOkVgB4PuPJ2Z0Q/R+xLS8jp6eW710nKYDzjJmcca14dp0YGjL6nid7nuoHvUoagO499Hy3CGgZiC5Xf2xfVNX+3MvSLbkKfbMzNkH7IOOr5lA/D/zJzdXpPu7xO/q2kjL7eq4UgIVl5ySSahkM3WvkCkueKNkNtO5Q/CPL+w3I7g8tEIlplRTKJcp9V9KUmumykzsK7mGZpU0K6eJzt1cs9sNXVxEii2R0rfD7tUPhXkT0o69VXainynzkNaTWLGxcUcm1NHyP6t4ycJwJnPRHrp76Q39Hacr/yr1Ikflj32LUXjRG37DBXyzAzm2hSMcF95+JY2pti0df+1E/F/u6LLILJr2E5NcdEXajtqF6nS3nT7wgED7X1MzzfnyT7AN7WAYRilS2gvpYQudPTzKT2eSULRgT063dVAbdm4yydlWgDEQ5oX7RYP12OCjxPrEYTJXFyCWYAAAAAElFTkSuQmCC;labelPosition=right;align=left;labelBorderColor=none;fontColor=#F0F0F0;spacingLeft=5;" vertex="1" parent="1541">
                    <mxGeometry y="27.09" width="20.35" height="20" as="geometry"/>
                </mxCell>
                <mxCell id="1543" value="Task" style="shape=image;verticalLabelPosition=middle;labelBackgroundColor=none;verticalAlign=middle;aspect=fixed;imageAspect=0;image=data:image/png,iVBORw0KGgoAAAANSUhEUgAAADkAAAA4CAYAAABHRFAgAAAI30lEQVRoBdWaeaxdRR3HS6FlbaFAQcBU9ghC2USKpWIhLCJQxAAlCGJJaQXKIksttPaJGkIUCQTQCBJlVYwrf2DUaAyiEGvQQmMMYhvZC2Vpleb13suHfOf85vZ3zp1z7rmvt+3rSW5m7sxvPTPz2+aMGDHMHpayFS+zDbA1L7A1sNkwE3HdxAEOpcVA7gdz+ANbrBvlYYQNzDQF59LiOlrMD//hwGEk5tBF4W3GmYLz4soBR5mS5wyd8gbGBPalyRmsZs8iaxocExRqcmacYznb0eIrYUWXslUcVwuMpsEUYJrOrp/baH0GORBYYKs1AMwA9jOBdwMus1Xb3wsJnB/GG5zIEkbzHFvS4BMQtnM8v7Mg/xI8jdI+TWa0BSoag9R/+EIZMQb5SFvBJtPtvGUCwjWOz7U8wuaeDoNMdPPzaKHzmuE2udC9nIt7VrRfSgI7tBWEqVIAGAVMosWXgsBaFTiRt9jBKxj7YRdIoagcfD5ueV5nDC3mGJ32Vo+4G6QN/q7F9SbE7p6pVo3VTIiGxs+l+sDOQI6G4GhyZqDf4OQU3gYZA44PQjQ5r98MzSrLOC3gTbbvN/3a9Gw1dZ4GeJcP1kasAUiTU+0FTqsBvn5BgKkmzLn94gRsYwHDQlayUy26/TI2KWYhJm1xCfCp5PwKxgInoTBOrgbmAReyhsPK4ldg2+BHYb7i3RTdjrH1qWQHMzfAIAcQjVO0oL6Fi6SQQ2l3gXPDDtG5L7ifNlA/OuHMwVmBIUwn+50N7FWHPvBl28qisRsDjAwrDwcDV4S5FhenrDCwv80rwJgLnBHGyPvbOnJUwgA3k35egu4ZBIRg4eAUk5B2RT/YYHISBo6mxey2stoFcBWwZQq+5zGdF+AF0/HnwMPAj4BXbCx5BnthBOxtClxehQfsCCEGziz5KsZXwdeeAyabMks9EnCDjd/vx4faD1sxW6GuBoYWl4aXAjvX4gfsWgUI3G7K3OzhdB5tfJVMvZ/zfWAcdDf/tLjcBB/n8VP9YKH1QlZ2UVL7GXjUBP0NcGyRIDASeNlgjkjM/9nmpifmxttZ/h/wDnB0ESb+ZxGj2v5wCaPjuG+BDwAnhLMYLXNJLBzwTMHHTEDfPAF8WkBmLO62yX97hrEfMoQMYIlZvc2BXYBvAv/3hE3RSRHXty557sh0lHkAs3JGp8UVOkaeRq5vSL82AV4LBzlzzm84oWQ1/XNVjoj9sYDa48lAeeV+CXwMeMiIaUWP8rRYhVb8BtuqIf/MzcsmZGf1WgUaUCNsBH5gDF/VakWCIbrIzPKLNr8SuBNImn6Ht33wdfAv91Z+ARzuYLTCssp63tbLcXOyrAtpdkZKZtmvNCX3iThdW+Cnxuz2FHAoO8Ange1S82VjJpAy+oNSMMABxnfQKynYspBNwb5t07kpmqVjEGLF92xbVVrWUiJDmADuMSW/Vxfdku+ssgD71sULcMDPjOGtPSEOEVjnCFgDNIH6206r3AjRzgBNZvbEHpgIaDVXpzLxnojVAAZus5f6UA3wHIjCRuBqO5e5IlgOMPUHeKSX1QzVb1Xc4GsWKE8ryxw8PwUCwLv2UpPnNcKzhknBgr7DjnFMrdyaKXm+H+/aB240JR+oAg4M4BmDLTZyFzdVGSlncOQ+KgPqdiSjWmyTzwafq3xT1lduZA1HVsmam7MDHQPsjkgnApsCUTG5FgUH8y2SedxWR/N6CRMiXrEF/mZEKqsGofLX5PTAI4tqpFymIHy8SLf0v53HGMksLgO0LSnZZDCU1owqwsoXAs+aAmrHFGH0P0QsGdA/QmmyS3qGqggNToZ2FbA0JGzzs2D6eieQycUFbSDXsaRUlrAFnOamOroQyhqLjeAtHQCZkmOAtyJTYAVwr0UwHS8v0gjJ+ip2if9LW+B+R1zd14G7qFh+4PuGc1cpYTdhu0MvRNY6XUCGfSAku3Hlo1iS5zBHrveu+SYRfAA4pVsmb5GLGOupbbKB3xlO1xsq4MNWzPqv4VzSu2YOw7acaI10w6VdyyIEv7wUKDEBLDSBv5qYTg7ZjhLaF5MAdQedBax1ba2IxIRNpldlfM04CfXbZTDFceA7xmt2ca6n/0ZETe7+r4yILKThyAfWvuYGbjW82sE0cJ/hzCqTp9Y40DBCcsYieqoyjSpkIFrLk6rg4pxVEJ4zPlPieKo1y61qm0/NklY+hZ8cAz7nnLHJEcy5LGiynuJ85FN1VpOsOCza/6GkHhouW+GvUQBrFZDcUic8TCpXHLSzptL83x2jm4pw+h/uINaWIeXPSrdtuAPJYlOR7aj1GD2dc7kYPUqaRVP1mtyFbEqWIY9Z1CGGy8u2LnCkBdaCe7IoFPAh4FvuOJT6VBmjoF5Wr62MX4esVAoReNoYl8aTpmgsLAtcJZF/ArFEojGlbF+Xfy3hs62LdiqdvtHRTqv7e7CMb5DFlf7vTQkXx6z2o22uipx/tO1UoJoYYVMthBhUeMtS834MWOQZ1OgrVEzvDCtJxopcKEF6ZmV9KxQrWlGmX+s8mUtSrKrn+DLaGjfYQ4C6v3ZBrIMuoC8p9DzdMbkeBsKtVsbvifVAvpOkVgB4PuPJ2Z0Q/R+xLS8jp6eW710nKYDzjJmcca14dp0YGjL6nid7nuoHvUoagO499Hy3CGgZiC5Xf2xfVNX+3MvSLbkKfbMzNkH7IOOr5lA/D/zJzdXpPu7xO/q2kjL7eq4UgIVl5ySSahkM3WvkCkueKNkNtO5Q/CPL+w3I7g8tEIlplRTKJcp9V9KUmumykzsK7mGZpU0K6eJzt1cs9sNXVxEii2R0rfD7tUPhXkT0o69VXainynzkNaTWLGxcUcm1NHyP6t4ycJwJnPRHrp76Q39Hacr/yr1Ikflj32LUXjRG37DBXyzAzm2hSMcF95+JY2pti0df+1E/F/u6LLILJr2E5NcdEXajtqF6nS3nT7wgED7X1MzzfnyT7AN7WAYRilS2gvpYQudPTzKT2eSULRgT063dVAbdm4yydlWgDEQ5oX7RYP12OCjxPrEYTJXFyCWYAAAAAElFTkSuQmCC;labelPosition=right;align=left;labelBorderColor=none;fontColor=#F0F0F0;spacingLeft=5;" vertex="1" parent="1">
                    <mxGeometry x="210" y="409.09000000000003" width="20.35" height="20" as="geometry"/>
                </mxCell>
                <mxCell id="1545" style="edgeStyle=orthogonalEdgeStyle;html=1;entryX=0;entryY=0.5;entryDx=0;entryDy=0;dashed=1;labelBackgroundColor=none;fontSize=18;fontColor=#F0F0F0;startArrow=none;startFill=0;endArrow=block;endFill=1;strokeColor=#CCCCCC;rounded=1;exitX=0;exitY=0.5;exitDx=0;exitDy=0;" edge="1" parent="1" source="1512" target="1496">
                    <mxGeometry relative="1" as="geometry">
                        <Array as="points">
                            <mxPoint x="180" y="313"/>
                            <mxPoint x="180" y="220"/>
                        </Array>
                    </mxGeometry>
                </mxCell>
                <mxCell id="1550" value="&lt;font color=&quot;#ff6666&quot;&gt;Load&lt;/font&gt;&lt;br style=&quot;color: rgb(255 , 102 , 102) ; font-size: 14px&quot;&gt;&lt;span style=&quot;color: rgb(255 , 102 , 102) ; font-size: 14px&quot;&gt;Server&lt;br&gt;Side &lt;br style=&quot;font-size: 14px&quot;&gt;Policies&lt;/span&gt;" style="edgeLabel;html=1;align=center;verticalAlign=middle;resizable=0;points=[];fontSize=14;fontColor=#F0F0F0;labelBackgroundColor=none;" vertex="1" connectable="0" parent="1545">
                    <mxGeometry x="-0.2135" relative="1" as="geometry">
                        <mxPoint x="-30" y="-11" as="offset"/>
                    </mxGeometry>
                </mxCell>
                <mxCell id="1547" value="1" style="ellipse;whiteSpace=wrap;html=1;aspect=fixed;dashed=1;labelBackgroundColor=none;fontSize=12;fontColor=#ffffff;strokeColor=#314354;fillColor=#647687;opacity=50;" vertex="1" parent="1">
                    <mxGeometry x="430" y="160" width="20" height="20" as="geometry"/>
                </mxCell>
                <mxCell id="1548" value="2" style="ellipse;whiteSpace=wrap;html=1;aspect=fixed;dashed=1;labelBackgroundColor=none;fontSize=12;fontColor=#ffffff;strokeColor=#314354;fillColor=#647687;opacity=50;" vertex="1" parent="1">
                    <mxGeometry x="430" y="260" width="20" height="20" as="geometry"/>
                </mxCell>
                <mxCell id="1549" value="0" style="ellipse;whiteSpace=wrap;html=1;aspect=fixed;dashed=1;labelBackgroundColor=none;fontSize=12;fontColor=#ffffff;strokeColor=#314354;fillColor=#647687;opacity=50;" vertex="1" parent="1">
                    <mxGeometry x="170" y="190" width="20" height="20" as="geometry"/>
                </mxCell>
                <mxCell id="1551" value="3" style="ellipse;whiteSpace=wrap;html=1;aspect=fixed;dashed=1;labelBackgroundColor=none;fontSize=12;fontColor=#ffffff;strokeColor=#314354;fillColor=#647687;opacity=50;" vertex="1" parent="1">
                    <mxGeometry x="430" y="380" width="20" height="20" as="geometry"/>
                </mxCell>
                <mxCell id="1553" value="GitHub API" style="rounded=1;whiteSpace=wrap;html=1;labelBackgroundColor=none;fontSize=12;fontColor=#ffffff;fillColor=#647687;rotation=-90;arcSize=2;strokeColor=#314354;" vertex="1" parent="1">
                    <mxGeometry x="527.67" y="340.62" width="235" height="31.35" as="geometry"/>
                </mxCell>
                <mxCell id="1554" value="" style="group" vertex="1" connectable="0" parent="1">
                    <mxGeometry x="720" y="380" width="80" height="90" as="geometry"/>
                </mxCell>
                <mxCell id="1488" value="Repos" style="rounded=1;whiteSpace=wrap;html=1;arcSize=7;fillColor=none;labelPosition=center;verticalLabelPosition=top;align=center;verticalAlign=bottom;fontColor=#CCCCCC;" vertex="1" parent="1554">
                    <mxGeometry width="80" height="90" as="geometry"/>
                </mxCell>
                <mxCell id="1491" value="" style="shape=image;verticalLabelPosition=bottom;labelBackgroundColor=none;verticalAlign=top;aspect=fixed;imageAspect=0;image=data:image/png,iVBORw0KGgoAAAANSUhEUgAAADQAAAA2CAYAAACIsLrgAAAFG0lEQVRoBd2ayW7dNhSGHQ/xmHlo0WUfops+Rx+gWRXoqshsO3aepy/RRbsp4G0XRVt0UaBxnHl2Eitf8UmHF5Tule1cu5biA/xX1KV0xJ+kfpKHmgC+Bv6isg9AAewA7wPvgLeBbeBN4DXwKvASeBF4DjwDngaeAI8Dj4CHgQfAVuA+sBm4B2xYrolxLG4OPr06/DkOnwnA2tE+A04Ak8AUMB2YAU4GZoG5wDywEFgElgKngNPAmcBZ4FzgPHAhcBG4FLgcz7cMX0R5PhyU0OWxHBzyTVGhcirGch19WAeXxnJwyDdF7zgQIV9O7eIhl20sdxmhnXEd9I2Q7672flxCyqh2YSwHh3xTCJHlGUmIHa4A37Y+FnBs0FoJAb/ENXsdfm590D4zAFVVezfqFgruUrA+Kq/8LyN0vu2iIybkEKG9bZanHFb2QchRXDvXdNDFeYx3lufYEHLw1rabFZq10Fozb3AOONfSzg7+7DARsxDLM0zoLpPxDu1KyEmkdqZDHoNHZ4TeDP6MBIkQ3BnKS+oXM+I+EXKOqL0eKrTzzEoUhgklsYipvg5ONx2k849Quaooe/+2yjtwYEKuX7S+EHIGr71KFZqO/MhU2UKwmv7zmInFuieJ0Kn8oq7SgEsR7WWzDOU8r+pabYTWJORKU1tqOuji/DgScqGovWhWKD8xHV1uJc+rqZ9NGw4W84u6SgOueLVhQq6i7XJQJ5TUTzmPIIcOFroikT83I/Q8/990OROv3qHRhIp9Ejpi2TYeoT0bIrTBTLTQcp5XUz8HsHAwn1+Upz81QsbZtFZCObn/Ox2RIsvztPmscq1Udbl6CxmlSnIeQUMdzDUddHHuJLmsXnjSfD6/cTK63O08r6Z+zmrDwWx+UVfp40jIoKT2uFmp5eKv6lr1FkpyXrCiFBq31k42HXRxDhhd1YYJ/cFsvCt1Qkn9gpDBeG2mjcARq1wi9KhZHhIhuJXnkQjBsi3UN0LGvrWHeaFNw6CF6oSMFCX1iy0THUw3HXRxHoH8AxFyL0jrCyF3JbQHzQrlb+ZCtm/meTU5j80tHUzlF3WVju0Vy7PVLEMZb6i6Vp2Q2z1J/WLHTgeTTQddnB9HQm5+afebFco/zEeXu5Hn1dQPcF9VO5Ff1FU6dvIszzAhAyh2LagTSuqnnFdcoCsCzedmhDZH5FWEihZCRUYoHNncwr1P1UakPVEHPKclTh6Fe6iuXYSrTJfOBjiEkRvDUcI9WcO7wkC8uwvCfSD3coX7umUPAT6PSr43ROhfFqKFrud5NfUDfk+t1LPjRl5o0+yT0FfAr/GNgDviwu8H3NkTboi5hyTcqTAWLgwh+z2CMBRm9Mj4hPD7BReOwvWWM3rhvNGZifA7CMdA4bcR6V22Xv1uYug7hbLlK3mut5C9YIScNyukd+dsshhd7lpeuDb1y6/pZfr4EVJwqq5Vb6Ek5w3162Wr5IVii6WRhJJY7EWoDA/pJMmxfVhJ1oGwZhy9hS+mk0ehRLt2EUq1sQChXLt2SZ/dGAlN0m0gvpLvyTISWn2m46c6gwG/HBqqgfVqjWgiBDWxyK8p08D3USPuPPcH8F1e2Db1y69JhL4BrlJwrQTl8TpQoeCG05ASBTchUHALAgW3IVCwDCxTsFKC8rhKwSrg8U4JyuMaBWI9g9OeH9jmy7yw+yaU39TndJv69bnMu5atfMdHqN+uN/U588CEeqd+Sc6hpn77boRPRf0+hlBv1e8/cbdyugfEJGcAAAAASUVORK5CYII=;fontColor=#CCCCCC;" vertex="1" parent="1554">
                    <mxGeometry x="14" y="20" width="52" height="54" as="geometry"/>
                </mxCell>
                <mxCell id="1555" value="" style="group" vertex="1" connectable="0" parent="1">
                    <mxGeometry x="720" y="240" width="80" height="100" as="geometry"/>
                </mxCell>
                <mxCell id="1492" value="Policy Repository" style="rounded=1;whiteSpace=wrap;html=1;arcSize=7;fillColor=#008a00;labelPosition=center;verticalLabelPosition=top;align=center;verticalAlign=bottom;fontColor=#ffffff;strokeColor=#005700;opacity=50;" vertex="1" parent="1555">
                    <mxGeometry width="80" height="100" as="geometry"/>
                </mxCell>
                <mxCell id="1493" value="Policies" style="shape=image;verticalLabelPosition=bottom;labelBackgroundColor=none;verticalAlign=top;aspect=fixed;imageAspect=0;image=data:image/png,iVBORw0KGgoAAAANSUhEUgAAADQAAAA2CAYAAACIsLrgAAAFG0lEQVRoBd2ayW7dNhSGHQ/xmHlo0WUfops+Rx+gWRXoqshsO3aepy/RRbsp4G0XRVt0UaBxnHl2Eitf8UmHF5Tule1cu5biA/xX1KV0xJ+kfpKHmgC+Bv6isg9AAewA7wPvgLeBbeBN4DXwKvASeBF4DjwDngaeAI8Dj4CHgQfAVuA+sBm4B2xYrolxLG4OPr06/DkOnwnA2tE+A04Ak8AUMB2YAU4GZoG5wDywEFgElgKngNPAmcBZ4FzgPHAhcBG4FLgcz7cMX0R5PhyU0OWxHBzyTVGhcirGch19WAeXxnJwyDdF7zgQIV9O7eIhl20sdxmhnXEd9I2Q7672flxCyqh2YSwHh3xTCJHlGUmIHa4A37Y+FnBs0FoJAb/ENXsdfm590D4zAFVVezfqFgruUrA+Kq/8LyN0vu2iIybkEKG9bZanHFb2QchRXDvXdNDFeYx3lufYEHLw1rabFZq10Fozb3AOONfSzg7+7DARsxDLM0zoLpPxDu1KyEmkdqZDHoNHZ4TeDP6MBIkQ3BnKS+oXM+I+EXKOqL0eKrTzzEoUhgklsYipvg5ONx2k849Quaooe/+2yjtwYEKuX7S+EHIGr71KFZqO/MhU2UKwmv7zmInFuieJ0Kn8oq7SgEsR7WWzDOU8r+pabYTWJORKU1tqOuji/DgScqGovWhWKD8xHV1uJc+rqZ9NGw4W84u6SgOueLVhQq6i7XJQJ5TUTzmPIIcOFroikT83I/Q8/990OROv3qHRhIp9Ejpi2TYeoT0bIrTBTLTQcp5XUz8HsHAwn1+Upz81QsbZtFZCObn/Ox2RIsvztPmscq1Udbl6CxmlSnIeQUMdzDUddHHuJLmsXnjSfD6/cTK63O08r6Z+zmrDwWx+UVfp40jIoKT2uFmp5eKv6lr1FkpyXrCiFBq31k42HXRxDhhd1YYJ/cFsvCt1Qkn9gpDBeG2mjcARq1wi9KhZHhIhuJXnkQjBsi3UN0LGvrWHeaFNw6CF6oSMFCX1iy0THUw3HXRxHoH8AxFyL0jrCyF3JbQHzQrlb+ZCtm/meTU5j80tHUzlF3WVju0Vy7PVLEMZb6i6Vp2Q2z1J/WLHTgeTTQddnB9HQm5+afebFco/zEeXu5Hn1dQPcF9VO5Ff1FU6dvIszzAhAyh2LagTSuqnnFdcoCsCzedmhDZH5FWEihZCRUYoHNncwr1P1UakPVEHPKclTh6Fe6iuXYSrTJfOBjiEkRvDUcI9WcO7wkC8uwvCfSD3coX7umUPAT6PSr43ROhfFqKFrud5NfUDfk+t1LPjRl5o0+yT0FfAr/GNgDviwu8H3NkTboi5hyTcqTAWLgwh+z2CMBRm9Mj4hPD7BReOwvWWM3rhvNGZifA7CMdA4bcR6V22Xv1uYug7hbLlK3mut5C9YIScNyukd+dsshhd7lpeuDb1y6/pZfr4EVJwqq5Vb6Ek5w3162Wr5IVii6WRhJJY7EWoDA/pJMmxfVhJ1oGwZhy9hS+mk0ehRLt2EUq1sQChXLt2SZ/dGAlN0m0gvpLvyTISWn2m46c6gwG/HBqqgfVqjWgiBDWxyK8p08D3USPuPPcH8F1e2Db1y69JhL4BrlJwrQTl8TpQoeCG05ASBTchUHALAgW3IVCwDCxTsFKC8rhKwSrg8U4JyuMaBWI9g9OeH9jmy7yw+yaU39TndJv69bnMu5atfMdHqN+uN/U588CEeqd+Sc6hpn77boRPRf0+hlBv1e8/cbdyugfEJGcAAAAASUVORK5CYII=;fontColor=#CCCCCC;" vertex="1" parent="1555">
                    <mxGeometry x="14" y="11" width="52" height="54" as="geometry"/>
                </mxCell>
                <mxCell id="1559" style="edgeStyle=orthogonalEdgeStyle;rounded=1;html=1;entryX=1;entryY=0.5;entryDx=0;entryDy=0;dashed=1;labelBackgroundColor=none;fontSize=12;fontColor=#F0F0F0;startArrow=none;startFill=0;endArrow=block;endFill=1;strokeColor=#CCCCCC;exitX=1;exitY=0.5;exitDx=0;exitDy=0;" edge="1" parent="1" source="1512" target="1540">
                    <mxGeometry relative="1" as="geometry">
                        <Array as="points">
                            <mxPoint x="340" y="313"/>
                            <mxPoint x="340" y="405"/>
                        </Array>
                    </mxGeometry>
                </mxCell>
                <mxCell id="1499" style="edgeStyle=entityRelationEdgeStyle;html=1;fontColor=#FF6666;startArrow=none;startFill=0;endArrow=block;endFill=1;strokeColor=#FFFFFF;exitX=0.999;exitY=0.465;exitDx=0;exitDy=0;exitPerimeter=0;dashed=1;" edge="1" parent="1" source="821">
                    <mxGeometry relative="1" as="geometry">
                        <mxPoint x="289.50235294117647" y="303.75235294117647" as="sourcePoint"/>
                        <mxPoint x="630" y="295" as="targetPoint"/>
                    </mxGeometry>
                </mxCell>
                <mxCell id="1500" value="Read the &lt;br style=&quot;font-size: 14px;&quot;&gt;Client-Side Policies" style="edgeLabel;html=1;align=center;verticalAlign=middle;resizable=0;points=[];fontColor=#FF6666;labelBackgroundColor=none;fontSize=14;" vertex="1" connectable="0" parent="1499">
                    <mxGeometry x="-0.0985" relative="1" as="geometry">
                        <mxPoint x="13" y="-25" as="offset"/>
                    </mxGeometry>
                </mxCell>
                <mxCell id="1565" value="..." style="shape=image;verticalLabelPosition=middle;labelBackgroundColor=none;verticalAlign=middle;aspect=fixed;imageAspect=0;image=data:image/png,iVBORw0KGgoAAAANSUhEUgAAADkAAAA4CAYAAABHRFAgAAAI30lEQVRoBdWaeaxdRR3HS6FlbaFAQcBU9ghC2USKpWIhLCJQxAAlCGJJaQXKIksttPaJGkIUCQTQCBJlVYwrf2DUaAyiEGvQQmMMYhvZC2Vpleb13suHfOf85vZ3zp1z7rmvt+3rSW5m7sxvPTPz2+aMGDHMHpayFS+zDbA1L7A1sNkwE3HdxAEOpcVA7gdz+ANbrBvlYYQNzDQF59LiOlrMD//hwGEk5tBF4W3GmYLz4soBR5mS5wyd8gbGBPalyRmsZs8iaxocExRqcmacYznb0eIrYUWXslUcVwuMpsEUYJrOrp/baH0GORBYYKs1AMwA9jOBdwMus1Xb3wsJnB/GG5zIEkbzHFvS4BMQtnM8v7Mg/xI8jdI+TWa0BSoag9R/+EIZMQb5SFvBJtPtvGUCwjWOz7U8wuaeDoNMdPPzaKHzmuE2udC9nIt7VrRfSgI7tBWEqVIAGAVMosWXgsBaFTiRt9jBKxj7YRdIoagcfD5ueV5nDC3mGJ32Vo+4G6QN/q7F9SbE7p6pVo3VTIiGxs+l+sDOQI6G4GhyZqDf4OQU3gYZA44PQjQ5r98MzSrLOC3gTbbvN/3a9Gw1dZ4GeJcP1kasAUiTU+0FTqsBvn5BgKkmzLn94gRsYwHDQlayUy26/TI2KWYhJm1xCfCp5PwKxgInoTBOrgbmAReyhsPK4ldg2+BHYb7i3RTdjrH1qWQHMzfAIAcQjVO0oL6Fi6SQQ2l3gXPDDtG5L7ifNlA/OuHMwVmBIUwn+50N7FWHPvBl28qisRsDjAwrDwcDV4S5FhenrDCwv80rwJgLnBHGyPvbOnJUwgA3k35egu4ZBIRg4eAUk5B2RT/YYHISBo6mxey2stoFcBWwZQq+5zGdF+AF0/HnwMPAj4BXbCx5BnthBOxtClxehQfsCCEGziz5KsZXwdeeAyabMks9EnCDjd/vx4faD1sxW6GuBoYWl4aXAjvX4gfsWgUI3G7K3OzhdB5tfJVMvZ/zfWAcdDf/tLjcBB/n8VP9YKH1QlZ2UVL7GXjUBP0NcGyRIDASeNlgjkjM/9nmpifmxttZ/h/wDnB0ESb+ZxGj2v5wCaPjuG+BDwAnhLMYLXNJLBzwTMHHTEDfPAF8WkBmLO62yX97hrEfMoQMYIlZvc2BXYBvAv/3hE3RSRHXty557sh0lHkAs3JGp8UVOkaeRq5vSL82AV4LBzlzzm84oWQ1/XNVjoj9sYDa48lAeeV+CXwMeMiIaUWP8rRYhVb8BtuqIf/MzcsmZGf1WgUaUCNsBH5gDF/VakWCIbrIzPKLNr8SuBNImn6Ht33wdfAv91Z+ARzuYLTCssp63tbLcXOyrAtpdkZKZtmvNCX3iThdW+Cnxuz2FHAoO8Ange1S82VjJpAy+oNSMMABxnfQKynYspBNwb5t07kpmqVjEGLF92xbVVrWUiJDmADuMSW/Vxfdku+ssgD71sULcMDPjOGtPSEOEVjnCFgDNIH6206r3AjRzgBNZvbEHpgIaDVXpzLxnojVAAZus5f6UA3wHIjCRuBqO5e5IlgOMPUHeKSX1QzVb1Xc4GsWKE8ryxw8PwUCwLv2UpPnNcKzhknBgr7DjnFMrdyaKXm+H+/aB240JR+oAg4M4BmDLTZyFzdVGSlncOQ+KgPqdiSjWmyTzwafq3xT1lduZA1HVsmam7MDHQPsjkgnApsCUTG5FgUH8y2SedxWR/N6CRMiXrEF/mZEKqsGofLX5PTAI4tqpFymIHy8SLf0v53HGMksLgO0LSnZZDCU1owqwsoXAs+aAmrHFGH0P0QsGdA/QmmyS3qGqggNToZ2FbA0JGzzs2D6eieQycUFbSDXsaRUlrAFnOamOroQyhqLjeAtHQCZkmOAtyJTYAVwr0UwHS8v0gjJ+ip2if9LW+B+R1zd14G7qFh+4PuGc1cpYTdhu0MvRNY6XUCGfSAku3Hlo1iS5zBHrveu+SYRfAA4pVsmb5GLGOupbbKB3xlO1xsq4MNWzPqv4VzSu2YOw7acaI10w6VdyyIEv7wUKDEBLDSBv5qYTg7ZjhLaF5MAdQedBax1ba2IxIRNpldlfM04CfXbZTDFceA7xmt2ca6n/0ZETe7+r4yILKThyAfWvuYGbjW82sE0cJ/hzCqTp9Y40DBCcsYieqoyjSpkIFrLk6rg4pxVEJ4zPlPieKo1y61qm0/NklY+hZ8cAz7nnLHJEcy5LGiynuJ85FN1VpOsOCza/6GkHhouW+GvUQBrFZDcUic8TCpXHLSzptL83x2jm4pw+h/uINaWIeXPSrdtuAPJYlOR7aj1GD2dc7kYPUqaRVP1mtyFbEqWIY9Z1CGGy8u2LnCkBdaCe7IoFPAh4FvuOJT6VBmjoF5Wr62MX4esVAoReNoYl8aTpmgsLAtcJZF/ArFEojGlbF+Xfy3hs62LdiqdvtHRTqv7e7CMb5DFlf7vTQkXx6z2o22uipx/tO1UoJoYYVMthBhUeMtS834MWOQZ1OgrVEzvDCtJxopcKEF6ZmV9KxQrWlGmX+s8mUtSrKrn+DLaGjfYQ4C6v3ZBrIMuoC8p9DzdMbkeBsKtVsbvifVAvpOkVgB4PuPJ2Z0Q/R+xLS8jp6eW710nKYDzjJmcca14dp0YGjL6nid7nuoHvUoagO499Hy3CGgZiC5Xf2xfVNX+3MvSLbkKfbMzNkH7IOOr5lA/D/zJzdXpPu7xO/q2kjL7eq4UgIVl5ySSahkM3WvkCkueKNkNtO5Q/CPL+w3I7g8tEIlplRTKJcp9V9KUmumykzsK7mGZpU0K6eJzt1cs9sNXVxEii2R0rfD7tUPhXkT0o69VXainynzkNaTWLGxcUcm1NHyP6t4ycJwJnPRHrp76Q39Hacr/yr1Ikflj32LUXjRG37DBXyzAzm2hSMcF95+JY2pti0df+1E/F/u6LLILJr2E5NcdEXajtqF6nS3nT7wgED7X1MzzfnyT7AN7WAYRilS2gvpYQudPTzKT2eSULRgT063dVAbdm4yydlWgDEQ5oX7RYP12OCjxPrEYTJXFyCWYAAAAAElFTkSuQmCC;labelPosition=right;align=left;labelBorderColor=none;fontColor=#F0F0F0;spacingLeft=5;" vertex="1" parent="1">
                    <mxGeometry x="210" y="436" width="20.35" height="20" as="geometry"/>
                </mxCell>
                <mxCell id="1567" value="Library" style="text;html=1;strokeColor=none;fillColor=none;align=center;verticalAlign=middle;whiteSpace=wrap;rounded=0;labelBackgroundColor=none;fontSize=14;opacity=10;rotation=-90;fontColor=#666666;" vertex="1" parent="1">
                    <mxGeometry x="270" y="395" width="60" height="20" as="geometry"/>
                </mxCell>
                <mxCell id="1568" value="*" style="text;html=1;strokeColor=none;fillColor=none;align=center;verticalAlign=middle;whiteSpace=wrap;rounded=0;labelBackgroundColor=none;fontSize=32;opacity=10;fontColor=#F0F0F0;" vertex="1" parent="1">
                    <mxGeometry x="460" y="260" width="10" height="10" as="geometry"/>
                </mxCell>
                <mxCell id="1571" value="&lt;font style=&quot;font-size: 32px&quot;&gt;*&lt;/font&gt; &lt;font style=&quot;font-size: 18px&quot;&gt;Only if app has been configured for client side policies.&lt;/font&gt;" style="text;html=1;strokeColor=none;fillColor=none;align=left;verticalAlign=middle;whiteSpace=wrap;rounded=0;labelBackgroundColor=none;fontSize=24;opacity=10;fontColor=#F0F0F0;" vertex="1" parent="1">
                    <mxGeometry x="70" y="530" width="500" height="20" as="geometry"/>
                </mxCell>
            </root>
        </mxGraphModel>
    </diagram>
</mxfile>